<?xml version="1.0" encoding="utf-8"?>
<!-- Generator: Adobe Illustrator 21.1.0, SVG Export Plug-In . SVG Version: 6.00 Build 0)  -->
<svg version="1.1" id="Ebene_1" xmlns="http://www.w3.org/2000/svg" xmlns:xlink="http://www.w3.org/1999/xlink" x="0px" y="0px"
	 width="100px" height="100px" viewBox="0 0 100 100" enable-background="new 0 0 100 100" xml:space="preserve">
<g id="Page-1">
	<g id="Icons" transform="translate(-480.000000, -850.000000)">
		<g id="_x34_4--Confference--_x28_user_x2C_-people_x2C_-group_x2C_-team_x29_" transform="translate(481.000000, 851.000000)">
			<path id="Fill-67" fill="#FFD45C" d="M82.7,49c0,18.6-15.1,33.7-33.7,33.7S15.3,67.6,15.3,49S30.4,15.3,49,15.3
				S82.7,30.4,82.7,49"/>
			<path id="Fill-77" fill="#5FAFD6" d="M59.5,40.9c0,5.8-4.7,10.5-10.5,10.5s-10.5-4.7-10.5-10.5S43.2,30.4,49,30.4
				S59.5,35.1,59.5,40.9"/>
			<path id="Fill-79" fill="#5FAFD6" d="M57.1,56c-2.4,1.5-5.1,2.3-8.1,2.3c-3,0-5.8-0.8-8.1-2.3c-4.8,2.8-8.1,8-8.1,14v8.6
				c4.8,2.7,10.4,4.2,16.3,4.2s11.5-1.5,16.3-4.2v-8.6C65.3,63.9,62,58.8,57.1,56"/>
			<path id="Fill-81" fill="#5FAFD6" d="M35,47.8c0,3.9-3.1,7-7,7s-7-3.1-7-7s3.1-7,7-7S35,44,35,47.8"/>
			<path id="Fill-83" fill="#5FAFD6" d="M32.7,76.9v1.6l-2.8-1.7c-5.3-3.6-9.5-8.7-12-14.7c1-1.8,2.5-3.3,4.3-4.4
				c1.7,1.1,3.7,1.7,5.9,1.7s4.2-0.6,5.9-1.7c0.9,0.5,1.7,1.2,2.5,1.9c-2.3,2.8-3.7,6.4-3.7,10.3v6.5"/>
			<path id="Fill-85" fill="#5FAFD6" d="M63,47.8c0,3.9,3.1,7,7,7s7-3.1,7-7s-3.1-7-7-7S63,44,63,47.8"/>
			<path id="Fill-87" fill="#5FAFD6" d="M65.3,76.9v1.6l2.8-1.7c5.3-3.6,9.5-8.7,12-14.7c-1-1.8-2.5-3.3-4.3-4.4
				c-1.7,1.1-3.7,1.7-5.9,1.7c-2.2,0-4.2-0.6-5.9-1.7c-0.9,0.5-1.7,1.2-2.5,1.9c2.3,2.8,3.7,6.4,3.7,10.3v6.5"/>
			<path id="Fill-89" fill="#FF9900" d="M49,15.3c-0.6,0-1.2,0-1.7,0c17.8,0.9,32,15.6,32,33.7s-14.2,32.8-32,33.7
				c0.6,0,1.2,0,1.7,0c18.6,0,33.7-15.1,33.7-33.7S67.6,15.3,49,15.3"/>
			<path id="Fill-91" fill="#FFFFFF" d="M49,15.3c0.6,0,1.2,0,1.7,0c-17.8,0.9-32,15.6-32,33.7s14.2,32.8,32,33.7
				c-0.6,0-1.2,0-1.7,0c-18.6,0-33.7-15.1-33.7-33.7S30.4,15.3,49,15.3"/>
			<path id="Fill-93" fill="#3191AF" d="M61.8,78.5c-4.4,2.4-9.3,3.9-14.5,4.1c0.6,0,1.2,0.1,1.7,0.1c5.9,0,11.5-1.5,16.3-4.2l0-2.2
				L61.8,78.5z"/>
			<path id="Fill-95" fill="#3191AF" d="M65.3,76.9v1.6l2.8-1.7c5.3-3.6,9.5-8.7,12-14.7c-1-1.8-2.5-3.3-4.3-4.4
				c-0.6,0.4-1.3,0.7-2.1,1c1.8-0.3,3,0,3.7,1.3c-2.4,5.7-7.3,12.7-12.2,16.2V76.9z"/>
			<g id="Stroke-524">
				<path fill="#444444" d="M49,83.7c-19.2,0-34.7-15.6-34.7-34.7c0-19.2,15.6-34.7,34.7-34.7c19.2,0,34.7,15.6,34.7,34.7
					C83.7,68.2,68.2,83.7,49,83.7z M49,16.3c-18.1,0-32.7,14.7-32.7,32.7c0,18.1,14.7,32.7,32.7,32.7c18.1,0,32.7-14.7,32.7-32.7
					C81.7,30.9,67.1,16.3,49,16.3z"/>
			</g>
			<g id="Stroke-525">
				<path fill="#444444" d="M49,52.3c-6.3,0-11.5-5.1-11.5-11.5S42.7,29.4,49,29.4s11.5,5.1,11.5,11.5S55.3,52.3,49,52.3z M49,31.4
					c-5.2,0-9.5,4.2-9.5,9.5s4.2,9.5,9.5,9.5c5.2,0,9.5-4.2,9.5-9.5S54.2,31.4,49,31.4z"/>
			</g>
			<g id="Stroke-526">
				<path fill="#444444" d="M49,83.7c-5.9,0-11.7-1.5-16.8-4.3c-0.3-0.2-0.5-0.5-0.5-0.9v-8.6c0-6.1,3.2-11.7,8.6-14.8
					c0.3-0.2,0.7-0.2,1,0c2.2,1.4,4.8,2.2,7.6,2.2s5.4-0.7,7.6-2.2c0.3-0.2,0.7-0.2,1,0c5.4,3.2,8.6,8.7,8.6,14.8v8.6
					c0,0.4-0.2,0.7-0.5,0.9C60.7,82.2,54.9,83.7,49,83.7z M33.7,78c4.7,2.5,10,3.8,15.3,3.8c5.3,0,10.6-1.3,15.3-3.8v-8
					c0-5.2-2.7-9.9-7.1-12.8c-2.4,1.4-5.2,2.2-8.1,2.2c-3,0-5.7-0.7-8.1-2.2c-4.5,2.8-7.1,7.6-7.1,12.8V78z"/>
			</g>
			<g id="Stroke-527">
				<path fill="#444444" d="M28.1,55.8c-4.4,0-8-3.6-8-8c0-4.4,3.6-8,8-8c4.4,0,8,3.6,8,8C36,52.2,32.5,55.8,28.1,55.8z M28.1,41.9
					c-3.3,0-6,2.7-6,6c0,3.3,2.7,6,6,6s6-2.7,6-6C34,44.5,31.4,41.9,28.1,41.9z"/>
			</g>
			<g id="Stroke-574">
				<path fill="#444444" d="M32.7,79.5c-0.2,0-0.4,0-0.5-0.1l-2.8-1.7c-5.5-3.8-9.8-9-12.4-15.2c-0.1-0.3-0.1-0.6,0-0.9
					c1.1-2,2.7-3.6,4.7-4.8c0.3-0.2,0.7-0.2,1,0c3.2,2.1,7.4,2.1,10.6,0c0.3-0.2,0.7-0.2,1,0c1,0.6,1.9,1.3,2.7,2.1
					c0.4,0.4,0.4,0.9,0.1,1.3c-2.3,2.8-3.4,6.1-3.4,9.6v6.5c0,0.1,0,0.2,0,0.2c0,0.1,0,0.1,0,0.2v1.6c0,0.4-0.2,0.7-0.5,0.9
					C33,79.5,32.9,79.5,32.7,79.5z M19,62.2c2.5,5.6,6.4,10.3,11.5,13.8l1.2,0.8c0,0,0,0,0-0.1c0-0.1,0-0.1,0-0.2v-6.5
					c0-3.6,1.2-7.2,3.3-10.2c-0.4-0.3-0.7-0.6-1.1-0.9c-3.6,2-8.1,2-11.7,0C20.9,59.8,19.8,60.9,19,62.2z"/>
			</g>
			<g id="Stroke-575">
				<path fill="#444444" d="M69.9,55.8c-4.4,0-8-3.6-8-8c0-4.4,3.6-8,8-8s8,3.6,8,8C77.9,52.2,74.3,55.8,69.9,55.8z M69.9,41.9
					c-3.3,0-6,2.7-6,6c0,3.3,2.7,6,6,6s6-2.7,6-6C75.9,44.5,73.2,41.9,69.9,41.9z"/>
			</g>
			<g id="Stroke-576">
				<path fill="#444444" d="M65.3,79.5c-0.2,0-0.3,0-0.5-0.1c-0.3-0.2-0.5-0.5-0.5-0.9v-1.6c0-0.1,0-0.2,0-0.2c0-0.1,0-0.1,0-0.2
					v-6.5c0-3.5-1.2-6.9-3.4-9.6c-0.3-0.4-0.3-1,0.1-1.3c0.8-0.8,1.7-1.5,2.7-2.1c0.3-0.2,0.7-0.2,1,0c3.2,2.1,7.4,2.1,10.6,0
					c0.3-0.2,0.7-0.2,1,0c1.9,1.1,3.6,2.8,4.7,4.8c0.2,0.3,0.2,0.6,0,0.9c-2.6,6.1-6.9,11.4-12.4,15.1l-2.8,1.7
					C65.6,79.5,65.5,79.5,65.3,79.5z M66.3,76.7C66.3,76.7,66.3,76.7,66.3,76.7l1.3-0.7c5-3.4,9-8.2,11.4-13.8
					c-0.8-1.3-1.9-2.4-3.2-3.3c-3.6,2-8.1,2-11.7,0c-0.4,0.3-0.8,0.5-1.1,0.9c2.1,2.9,3.3,6.5,3.3,10.2v6.5
					C66.3,76.5,66.3,76.6,66.3,76.7z"/>
			</g>
		</g>
	</g>
</g>
</svg>
