<?xml version="1.0" encoding="utf-8"?>
<!-- Generator: Adobe Illustrator 21.1.0, SVG Export Plug-In . SVG Version: 6.00 Build 0)  -->
<svg version="1.1" id="Ebene_1" xmlns="http://www.w3.org/2000/svg" xmlns:xlink="http://www.w3.org/1999/xlink" x="0px" y="0px"
	 width="100px" height="100px" viewBox="0 0 100 100" enable-background="new 0 0 100 100" xml:space="preserve">
<g id="Page-1_1_">
	<g id="Icons_1_" transform="translate(-960.000000, -735.000000)">
		
			<g id="_x31_1--Chat-Conversation--_x28_communication_x2C_-dialogue_x2C_-discussion_x2C_-yellow_x29_" transform="translate(960.000000, 735.000000)">
			<path id="Fill-521" fill="#3191AF" d="M62.6,30.6c3.4,0,6.1,2.8,6.1,6.1v23l8.7,9.6V55.7H80c3.4,0,6.1-2.8,6.1-6.1V23.2
				c0-3.4-2.8-6.1-6.1-6.1L62.6,30.6z"/>
			<path id="Fill-522" fill="#5FAFD6" d="M76.3,17l-38.8-0.1c-3.4,0-6.1,2.8-6.1,6.1v7.6l32.4-0.1c3.4,0,5,2.8,5,6.1v23.8l5,5v-9.9
				h2.6c3.4,0,6.1-2.8,6.1-6.1V23.2C82.4,19.8,79.7,17,76.3,17"/>
			<path id="Fill-527" fill="#FFA800" d="M58.7,30.6c7-0.3,10,2.8,10,6.2v26.3c0,3.4-2.9,6.2-10,6.1V30.6z"/>
			<path id="Fill-528" fill="#FFFFFF" d="M40,70.5L28.8,83.1V69.3H20c-3.4,0-6.1-1.5-6.1-4.9V38c0-3.4-0.2-7.4,12.5-7.4L40,70.5z"/>
			<path id="Fill-529" fill="#FFD45C" d="M64.9,37v26.4c0,3.4-2.8,6.1-6.1,6.1H41.3l-8.7,10v-10h-8.8c-3.4,0-6.1-2.8-6.1-6.1V37
				c0-3.4,2.8-6.1,6.1-6.1h35C62.1,30.9,64.9,33.6,64.9,37"/>
			<g id="Stroke-1159">
				<path fill="#444444" d="M41.3,44.1H25.1c-0.6,0-1-0.4-1-1s0.4-1,1-1h16.2c0.6,0,1,0.4,1,1S41.8,44.1,41.3,44.1z"/>
			</g>
			<g id="Stroke-1160">
				<path fill="#444444" d="M57.5,51.6H25.1c-0.6,0-1-0.4-1-1c0-0.6,0.4-1,1-1h32.4c0.6,0,1,0.4,1,1C58.5,51.1,58,51.6,57.5,51.6z"
					/>
			</g>
			<g id="Stroke-1161">
				<path fill="#444444" d="M57.5,59.1H25.1c-0.6,0-1-0.4-1-1s0.4-1,1-1h32.4c0.6,0,1,0.4,1,1S58,59.1,57.5,59.1z"/>
			</g>
			<g id="Stroke-1178">
				<path fill="#444444" d="M28.8,84.1c-0.1,0-0.2,0-0.4-0.1c-0.4-0.1-0.6-0.5-0.6-0.9V70.4H20c-3.9,0-7.1-3.2-7.1-7.1V48.1
					c0-0.6,0.4-1,1-1s1,0.4,1,1v15.1c0,2.8,2.3,5.1,5.1,5.1h8.8c0.6,0,1,0.4,1,1v11.1l10.7-11.8c0.2-0.2,0.5-0.3,0.7-0.3l21.3-0.1
					c2.8,0,5.1-2.3,5.1-5.1V36.8c0-2.8-2.3-5.1-5.1-5.1L20,31.7c-2.8,0-5.1,2.3-5.1,5.1V38c0,0.6-0.4,1-1,1s-1-0.4-1-1v-1.2
					c0-3.9,3.2-7.1,7.1-7.1l42.6-0.1c3.9,0,7.1,3.2,7.1,7.1v26.4c0,3.9-3.2,7.1-7.1,7.1l-20.8,0.1L29.6,83.7
					C29.4,84,29.1,84.1,28.8,84.1z"/>
			</g>
			<g id="Stroke-1185">
				<path fill="#444444" d="M77.4,70.4c-0.3,0-0.5-0.1-0.7-0.3L68,60.4c-0.2-0.2-0.3-0.4-0.3-0.7v-23c0-2.8-2.3-5.1-5.1-5.1
					l-31.2,0.1c0,0,0,0,0,0c-0.3,0-0.5-0.1-0.7-0.3c-0.2-0.2-0.3-0.4-0.3-0.7v-7.6c0-3.9,3.2-7.1,7.1-7.1H80c3.9,0,7.1,3.2,7.1,7.2
					v13.7c0,0.6-0.4,1-1,1s-1-0.4-1-1V23.2c0-2.9-2.3-5.2-5.1-5.2H37.4c-2.8,0-5.1,2.3-5.1,5.1v6.6l30.2-0.1c3.9,0,7.1,3.2,7.1,7.1
					v22.6l6.7,7.4V55.7c0-0.6,0.4-1,1-1H80c2.8,0,5.1-2.3,5.1-5.1v-2.7c0-0.6,0.4-1,1-1s1,0.4,1,1v2.7c0,3.9-3.2,7.1-7.1,7.1h-1.6
					v12.7c0,0.4-0.3,0.8-0.6,0.9C77.7,70.3,77.5,70.4,77.4,70.4z"/>
			</g>
			<path id="Fill-1186" fill="#444444" d="M87.4,41.9c0-0.7-0.6-1.2-1.2-1.2c-0.7,0-1.2,0.6-1.2,1.2c0,0.7,0.6,1.2,1.2,1.2
				C86.8,43.1,87.4,42.5,87.4,41.9"/>
			<path id="Fill-1423" fill="#444444" d="M15.1,43.1c0-0.7-0.6-1.2-1.2-1.2c-0.7,0-1.2,0.6-1.2,1.2c0,0.7,0.6,1.2,1.2,1.2
				C14.5,44.3,15.1,43.8,15.1,43.1"/>
		</g>
	</g>
</g>
</svg>
