<?xml version="1.0" encoding="utf-8"?>
<!-- Generator: Adobe Illustrator 21.1.0, SVG Export Plug-In . SVG Version: 6.00 Build 0)  -->
<svg version="1.1" id="Ebene_1" xmlns="http://www.w3.org/2000/svg" xmlns:xlink="http://www.w3.org/1999/xlink" x="0px" y="0px"
	 width="100px" height="100px" viewBox="0 0 100 100" enable-background="new 0 0 100 100" xml:space="preserve">
<g id="Page-1_2_">
	<g id="Construction---Cartoony" transform="translate(-250.000000, -3041.000000)">
		
			<g id="_x32_22--Bulb--_x28_construction_x2C_-tool_x2C_-work_x2C_-building_x2C_-cartoony_x29_" transform="translate(251.000000, 3042.000000)">
			<path id="Fill-353" fill="#FFD45C" d="M72.5,34.9c-1.2-11.2-10.2-20.2-21.4-21.4c-0.7-0.1-1.4-0.1-2.2-0.1
				c-0.7,0-1.4,0.1-2.2,0.1c-11.2,1.2-20.2,10.3-21.4,21.4c-0.9,8,2.1,15.2,7.3,20.2c3,2.9,5.4,6.5,6.2,10.5H59
				c0.8-4,3.2-7.7,6.2-10.5C70.4,50.2,73.4,42.9,72.5,34.9"/>
			<path id="Fill-354" fill="#FFA800" d="M72.5,34.9c-1.2-11.2-10.2-20.2-21.4-21.4c-0.7-0.1-1.4-0.1-2.2-0.1
				c-0.6,0-1.2,0.1-1.9,0.1c0.1,0,0.2,0,0.3,0c11.2,1.2,20.2,10.3,21.4,21.4c0.9,8-2.1,15.2-7.3,20.2c-3,2.9-5.4,6.5-6.2,10.5H59
				c0.8-4,3.2-7.7,6.2-10.5C70.4,50.1,73.4,42.9,72.5,34.9"/>
			<path id="Fill-355" fill="#FFFFFF" d="M25.5,34.9c1.2-11.2,10.2-20.2,21.4-21.4c0.7-0.1,1.4-0.1,2.2-0.1c0.6,0,1.2,0.1,1.9,0.1
				c-0.1,0-0.2,0-0.3,0c-11.2,1.2-20.2,10.3-21.4,21.4c-0.9,8,2.1,15.2,7.3,20.2c3,2.9,5.4,6.5,6.2,10.5H39c-0.8-4-3.2-7.7-6.2-10.5
				C27.6,50.2,24.6,42.9,25.5,34.9"/>
			<polygon id="Fill-356" fill="#5FAFD6" points="39,65.7 39,80.7 59,80.7 59,70.7 59,65.7 			"/>
			<polygon id="Fill-357" fill="#3191AF" points="55.2,80.7 59,80.7 59,65.7 55.2,65.7 			"/>
			<polygon id="Fill-358" fill="#FFFFFF" points="39,80.7 42.8,80.7 42.8,65.7 39,65.7 			"/>
			<g id="Fill-359">
				<path fill="#3191AF" d="M50.9,85.6h-3.7c-1.2,0-2.3-0.6-3-1.5l-2.6-3.5h15l-2.6,3.5C53.2,85.1,52,85.6,50.9,85.6"/>
			</g>
			<g id="Stroke-5317">
				<path fill="#444444" d="M59,81.7H39c-0.6,0-1-0.4-1-1v-15c0-0.6,0.4-1,1-1H59c0.6,0,1,0.4,1,1v15C60,81.2,59.5,81.7,59,81.7z
					 M40,79.7H58v-13H40V79.7z"/>
			</g>
			<path id="Stroke-5318" fill="none" stroke="#444444" stroke-width="2" stroke-linecap="round" stroke-linejoin="round" d="
				M50.9,85.6h-3.7c-1.2,0-2.3-0.6-3-1.5l-2.6-3.5h15l-2.6,3.5C53.2,85.1,52,85.6,50.9,85.6L50.9,85.6z"/>
			<g id="Stroke-5319">
				<path fill="#444444" d="M47.8,71.7H39c-0.6,0-1-0.4-1-1s0.4-1,1-1h8.7c0.6,0,1,0.4,1,1S48.3,71.7,47.8,71.7z"/>
			</g>
			<g id="Stroke-5320">
				<path fill="#444444" d="M59,76.7h-8.7c-0.6,0-1-0.4-1-1s0.4-1,1-1H59c0.6,0,1,0.4,1,1S59.5,76.7,59,76.7z"/>
			</g>
			<g id="Stroke-5321">
				<path fill="#444444" d="M59,71.7h-5c-0.6,0-1-0.4-1-1s0.4-1,1-1h5c0.6,0,1,0.4,1,1S59.5,71.7,59,71.7z"/>
			</g>
			<g id="Stroke-5322">
				<path fill="#444444" d="M44,76.7h-5c-0.6,0-1-0.4-1-1s0.4-1,1-1h5c0.6,0,1,0.4,1,1S44.6,76.7,44,76.7z"/>
			</g>
			<g id="Stroke-5328">
				<path fill="#444444" d="M59,66.7H39c-0.5,0-0.9-0.3-1-0.8c-0.7-3.5-2.8-7-5.9-10c-5.7-5.5-8.5-13.2-7.6-21.1
					c1.3-11.6,10.6-21,22.3-22.3c0.7-0.1,1.4-0.1,2.2-0.1c0.9,0,1.6,0.1,2.3,0.1c11.6,1.3,21,10.7,22.3,22.3l0,0
					c0.9,7.9-1.9,15.6-7.6,21.1c-3.1,3-5.3,6.6-5.9,10C59.9,66.4,59.4,66.7,59,66.7z M39.8,64.7h18.4c0.9-3.6,3.1-7.2,6.3-10.3
					c5.3-5,7.8-12.1,7-19.4l0,0C70.4,24.3,61.8,15.7,51,14.5c-0.6-0.1-1.3-0.1-2.1-0.1c-0.7,0-1.4,0.1-2,0.1
					C36.2,15.7,27.6,24.3,26.5,35c-0.8,7.3,1.8,14.4,7,19.4C36.7,57.5,38.9,61.1,39.8,64.7z"/>
			</g>
			<g id="Stroke-5344">
				<path fill="#444444" d="M52.7,66.7c-0.6,0-1-0.4-1-1V45.5h-5.5v20.2c0,0.6-0.4,1-1,1s-1-0.4-1-1V45.5h-2.7
					c-2.6,0-4.7-2.1-4.7-4.7s2.1-4.7,4.7-4.7s4.7,2.1,4.7,4.7v2.7h5.5v-2.7c0-2.6,2.1-4.7,4.7-4.7s4.7,2.1,4.7,4.7s-2.1,4.7-4.7,4.7
					h-2.7v20.2C53.7,66.2,53.3,66.7,52.7,66.7z M53.7,43.5h2.7c1.5,0,2.7-1.2,2.7-2.7S58,38,56.5,38s-2.7,1.2-2.7,2.7V43.5z
					 M41.5,38c-1.5,0-2.7,1.2-2.7,2.7s1.2,2.7,2.7,2.7h2.7v-2.7C44.3,39.3,43,38,41.5,38z"/>
			</g>
		</g>
	</g>
</g>
</svg>
