<?xml version="1.0" encoding="utf-8"?>
<!-- Generator: Adobe Illustrator 21.1.0, SVG Export Plug-In . SVG Version: 6.00 Build 0)  -->
<svg version="1.1" id="Ebene_1" xmlns="http://www.w3.org/2000/svg" xmlns:xlink="http://www.w3.org/1999/xlink" x="0px" y="0px"
	 width="100px" height="100px" viewBox="0 0 100 100" enable-background="new 0 0 100 100" xml:space="preserve">
<g id="Page-1_3_">
	<g id="Icons_2_" transform="translate(-129.000000, -381.000000)">
		
			<g id="_x31_--Clipboard--_x28_shipping_x2C_-transport_x2C_-delivery_x2C_-cartoony_x29_" transform="translate(129.000000, 382.000000)">
			<path id="Fill-534" fill="#3191AF" d="M72.7,17.6h-2.1c1.2,0,2.1,1,2.1,2.3v60.5c0,1.3-0.9,2.3-2.1,2.3h2.1c1.3,0,2.3-1,2.3-2.3
				V19.9C75,18.6,74,17.6,72.7,17.6"/>
			<path id="Fill-569" fill="#5FAFD6" d="M57.8,17.6v-1.2c0-0.6-0.5-1.2-1-1.2H42.1c-0.6,0-1,0.5-1,1.2v1.2H30.6
				c-1.2,0-2.1,1-2.1,2.3v60.5c0,1.3,0.9,2.3,2.1,2.3h37.7c1.2,0,2.1-1,2.1-2.3V19.9c0-1.3-0.9-2.3-2.1-2.3H57.8z"/>
			<path id="Fill-570" fill="#FFFFFF" d="M28.5,80.4V19.9c0-1.3,0.9-2.3,2.1-2.3h-2.1c-1.3,0-2.3,1-2.3,2.3v60.5
				c0,1.3,1,2.3,2.3,2.3h2.1C29.4,82.7,28.5,81.7,28.5,80.4"/>
			<path id="Fill-571" fill="#3191AF" d="M70.4,17.6h-2.1c1.2,0,2.1,1,2.1,2.3v60.5c0,1.3-0.9,2.3-2.1,2.3h2.1c1.3,0,2.3-1,2.3-2.3
				V19.9C72.7,18.6,71.6,17.6,70.4,17.6"/>
			<path id="Fill-572" fill="#5FAFD6" d="M58.7,22.2v1.2c0,0.6-0.5,1.2-1.2,1.2H41.3c-0.6,0-1.2-0.5-1.2-1.2v-1.2H32
				c-0.6,0-1.2,0.5-1.2,1.2v53.5c0,0.6,0.5,1.2,1.2,1.2h34.9c0.6,0,1.2-0.5,1.2-1.2V23.4c0-0.6-0.5-1.2-1.2-1.2H58.7z"/>
			<polygon id="Fill-573" fill="#FFE100" points="35.5,37.4 43.6,37.4 43.6,30.4 35.5,30.4 			"/>
			<polygon id="Fill-574" fill="#FFA800" points="43.6,37.4 47.1,37.4 47.1,30.4 43.6,30.4 			"/>
			<path id="Fill-575" fill="#FFE100" d="M54.1,24.6H41.3c-0.6,0-1.2-0.5-1.2-1.2v-7c0-0.6,0.5-1.2,1.2-1.2h12.8
				c0.6,0,1.2,0.5,1.2,1.2v7C55.2,24,54.7,24.6,54.1,24.6"/>
			<path id="Fill-576" fill="#FFA800" d="M57.6,15.3h-3.5c0.6,0,1.2,0.5,1.2,1.2v7c0,0.6-0.5,1.2-1.2,1.2h3.5c0.6,0,1.2-0.5,1.2-1.2
				v-7C58.7,15.8,58.2,15.3,57.6,15.3"/>
			<g id="Stroke-594">
				<path fill="#444444" d="M57.6,25.6H41.3c-1.2,0-2.2-1-2.2-2.2v-7c0-1.2,1-2.2,2.2-2.2h16.3c1.2,0,2.2,1,2.2,2.2v7
					C59.7,24.6,58.8,25.6,57.6,25.6z M41.3,16.3c-0.1,0-0.2,0.1-0.2,0.2v7c0,0.1,0.1,0.2,0.2,0.2h16.3c0.1,0,0.2-0.1,0.2-0.2v-7
					c0-0.1-0.1-0.2-0.2-0.2H41.3z"/>
			</g>
			<g id="Stroke-595">
				<path fill="#444444" d="M70.4,83.7H28.5c-1.8,0-3.3-1.5-3.3-3.3V39.7c0-0.6,0.4-1,1-1s1,0.4,1,1v40.7c0,0.7,0.6,1.3,1.3,1.3
					h41.9c0.7,0,1.3-0.6,1.3-1.3V19.9c0-0.7-0.6-1.3-1.3-1.3H58.7c-0.6,0-1-0.4-1-1v-1.2c0-0.1-0.1-0.2-0.2-0.2H41.3
					c-0.1,0-0.2,0.1-0.2,0.2v1.2c0,0.6-0.4,1-1,1H28.5c-0.7,0-1.3,0.6-1.3,1.3v10.5c0,0.6-0.4,1-1,1s-1-0.4-1-1V19.9
					c0-1.8,1.5-3.3,3.3-3.3h10.6v-0.2c0-1.2,1-2.2,2.2-2.2h16.3c1.2,0,2.2,1,2.2,2.2v0.2h10.6c1.8,0,3.3,1.5,3.3,3.3v60.5
					C73.7,82.2,72.2,83.7,70.4,83.7z"/>
			</g>
			<path id="Fill-596" fill="#444444" d="M27.3,35c0-0.6-0.5-1.2-1.2-1.2c-0.6,0-1.2,0.5-1.2,1.2s0.5,1.2,1.2,1.2
				C26.8,36.2,27.3,35.7,27.3,35"/>
			<g id="Stroke-597">
				<path fill="#444444" d="M66.9,79.1H32c-1.2,0-2.2-1-2.2-2.2V23.4c0-1.2,1-2.2,2.2-2.2h8.1c0.6,0,1,0.4,1,1v1.2
					c0,0.1,0.1,0.2,0.2,0.2h16.3c0.1,0,0.2-0.1,0.2-0.2v-1.2c0-0.6,0.4-1,1-1h8.1c1.2,0,2.2,1,2.2,2.2v53.5
					C69,78.1,68.1,79.1,66.9,79.1z M32,23.2c-0.1,0-0.2,0.1-0.2,0.2v53.5c0,0.1,0.1,0.2,0.2,0.2h34.9c0.1,0,0.2-0.1,0.2-0.2V23.4
					c0-0.1-0.1-0.2-0.2-0.2h-7.1v0.2c0,1.2-1,2.2-2.2,2.2H41.3c-1.2,0-2.2-1-2.2-2.2v-0.2H32z"/>
			</g>
			<g id="Stroke-598">
				<path fill="#444444" d="M47.1,38.4H35.5c-0.6,0-1-0.4-1-1v-7c0-0.6,0.4-1,1-1h11.6c0.6,0,1,0.4,1,1v7
					C48.1,37.9,47.6,38.4,47.1,38.4z M36.5,36.4h9.6v-5h-9.6V36.4z"/>
			</g>
			<g id="Stroke-599">
				<path fill="#444444" d="M63.4,45.3H35.5c-0.6,0-1-0.4-1-1s0.4-1,1-1h27.9c0.6,0,1,0.4,1,1S63.9,45.3,63.4,45.3z"/>
			</g>
			<g id="Stroke-600">
				<path fill="#444444" d="M61.1,50H35.5c-0.6,0-1-0.4-1-1s0.4-1,1-1h25.6c0.6,0,1,0.4,1,1S61.6,50,61.1,50z"/>
			</g>
			<g id="Stroke-601">
				<path fill="#444444" d="M59.9,54.7H35.5c-0.6,0-1-0.4-1-1s0.4-1,1-1h24.4c0.6,0,1,0.4,1,1S60.4,54.7,59.9,54.7z"/>
			</g>
			<g id="Stroke-602">
				<path fill="#444444" d="M55.2,73.3c-0.3,0-0.6-0.1-0.8-0.4l-3.5-4.7c-0.3-0.4-0.2-1.1,0.2-1.4c0.4-0.3,1.1-0.2,1.4,0.2l3.5,4.7
					c0.3,0.4,0.2,1.1-0.2,1.4C55.7,73.2,55.4,73.3,55.2,73.3z"/>
			</g>
			<g id="Stroke-603">
				<path fill="#444444" d="M55.2,73.3c-0.2,0-0.4-0.1-0.6-0.2c-0.4-0.3-0.6-0.9-0.2-1.4l5.8-8.1c0.3-0.4,0.9-0.6,1.4-0.2
					c0.4,0.3,0.6,0.9,0.2,1.4L56,72.9C55.9,73.1,55.5,73.3,55.2,73.3z"/>
			</g>
		</g>
	</g>
</g>
</svg>
