<?xml version="1.0" encoding="utf-8"?>
<!-- Generator: Adobe Illustrator 21.1.0, SVG Export Plug-In . SVG Version: 6.00 Build 0)  -->
<svg version="1.1" id="Layer_1" xmlns="http://www.w3.org/2000/svg" xmlns:xlink="http://www.w3.org/1999/xlink" x="0px" y="0px"
	 viewBox="0 0 1480 687" style="enable-background:new 0 0 1480 687;" xml:space="preserve">
<style type="text/css">
	.st0{clip-path:url(#SVGID_2_);}
	.st1{fill:#6DBCAD;}
	.st2{clip-path:url(#SVGID_4_);}
	.st3{fill:#75C3B4;}
</style>
<title>Asset 1</title>
<g>
	<defs>
		<rect id="SVGID_1_" width="1480" height="687"/>
	</defs>
	<clipPath id="SVGID_2_">
		<use xlink:href="#SVGID_1_"  style="overflow:visible;"/>
	</clipPath>
	<g class="st0">
		<rect class="st1" width="1480" height="873"/>
		<g>
			<defs>
				<rect id="SVGID_3_" width="1480" height="1484.3"/>
			</defs>
			<clipPath id="SVGID_4_">
				<use xlink:href="#SVGID_3_"  style="overflow:visible;"/>
			</clipPath>
			<g class="st2">
				<polygon class="st3" points="135.9,1516.8 59.1,1407.4 125.5,1312.8 59.1,1218.1 125.5,1123.4 59.1,1028.8 125.5,934.2 
					59.1,839.5 125.5,744.8 59.1,650.2 125.5,555.5 59.1,460.9 125.5,366.2 59.1,271.6 125.5,176.9 59.1,82.2 125.5,-12.4 
					59.1,-107.1 125.5,-201.7 59.1,-296.4 135.9,-405.8 177.9,-376.3 121.8,-296.4 188.2,-201.7 121.8,-107.1 188.2,-12.4 
					121.8,82.2 188.2,176.9 121.8,271.6 188.2,366.2 121.8,460.9 188.2,555.5 121.8,650.2 188.2,744.8 121.8,839.5 188.2,934.2 
					121.8,1028.8 188.2,1123.4 121.8,1218.1 188.2,1312.8 121.8,1407.4 177.9,1487.3 				"/>
				<polygon class="st3" points="272.7,1516.8 195.9,1407.4 262.3,1312.8 195.9,1218.1 262.3,1123.4 195.9,1028.8 262.3,934.2 
					195.9,839.5 262.3,744.8 195.9,650.2 262.3,555.5 195.9,460.9 262.3,366.2 195.9,271.6 262.3,176.9 195.9,82.2 262.3,-12.4 
					195.9,-107.1 262.3,-201.7 195.9,-296.4 272.7,-405.8 314.7,-376.3 258.6,-296.4 325,-201.7 258.6,-107.1 325,-12.4 258.6,82.2 
					325,176.9 258.6,271.6 325,366.2 258.6,460.9 325,555.5 258.6,650.2 325,744.8 258.6,839.5 325,934.2 258.6,1028.8 325,1123.4 
					258.6,1218.1 325,1312.8 258.6,1407.4 314.7,1487.3 				"/>
				<polygon class="st3" points="-1.1,1516.8 -77.9,1407.4 -11.5,1312.8 -77.9,1218.1 -11.5,1123.4 -77.9,1028.8 -11.5,934.2 
					-77.9,839.5 -11.5,744.8 -77.9,650.2 -11.5,555.5 -77.9,460.9 -11.5,366.2 -77.9,271.6 -11.5,176.9 -77.9,82.2 -11.5,-12.4 
					-77.9,-107.1 -11.5,-201.7 -77.9,-296.4 -1.1,-405.8 40.9,-376.3 -15.2,-296.4 51.2,-201.7 -15.2,-107.1 51.2,-12.4 -15.2,82.2 
					51.2,176.9 -15.2,271.6 51.2,366.2 -15.2,460.9 51.2,555.5 -15.2,650.2 51.2,744.8 -15.2,839.5 51.2,934.2 -15.2,1028.8 
					51.2,1123.4 -15.2,1218.1 51.2,1312.8 -15.2,1407.4 40.9,1487.3 				"/>
				<polygon class="st3" points="409.5,1516.8 332.7,1407.4 399.1,1312.8 332.7,1218.1 399.1,1123.4 332.7,1028.8 399.1,934.2 
					332.7,839.5 399.1,744.8 332.7,650.2 399.1,555.5 332.7,460.9 399.1,366.2 332.7,271.6 399.1,176.9 332.7,82.2 399.1,-12.4 
					332.7,-107.1 399.1,-201.7 332.7,-296.4 409.5,-405.8 451.5,-376.3 395.4,-296.4 461.8,-201.7 395.4,-107.1 461.8,-12.4 
					395.4,82.2 461.8,176.9 395.4,271.6 461.8,366.2 395.4,460.9 461.8,555.5 395.4,650.2 461.8,744.8 395.4,839.5 461.8,934.2 
					395.4,1028.8 461.8,1123.4 395.4,1218.1 461.8,1312.8 395.4,1407.4 451.5,1487.3 				"/>
				<polygon class="st3" points="546.3,1516.8 469.5,1407.4 535.9,1312.8 469.5,1218.1 535.9,1123.4 469.5,1028.8 535.9,934.2 
					469.5,839.5 535.9,744.8 469.5,650.2 535.9,555.5 469.5,460.9 535.9,366.2 469.5,271.6 535.9,176.9 469.5,82.2 535.9,-12.4 
					469.5,-107.1 535.9,-201.7 469.5,-296.4 546.3,-405.8 588.3,-376.3 532.2,-296.4 598.6,-201.7 532.2,-107.1 598.6,-12.4 
					532.2,82.2 598.6,176.9 532.2,271.6 598.6,366.2 532.2,460.9 598.6,555.5 532.2,650.2 598.6,744.8 532.2,839.5 598.6,934.2 
					532.2,1028.8 598.6,1123.4 532.2,1218.1 598.6,1312.8 532.2,1407.4 588.3,1487.3 				"/>
				<polygon class="st3" points="683.1,1516.8 606.3,1407.4 672.7,1312.8 606.3,1218.1 672.7,1123.4 606.3,1028.8 672.7,934.2 
					606.3,839.5 672.7,744.8 606.3,650.2 672.7,555.5 606.3,460.9 672.7,366.2 606.3,271.6 672.7,176.9 606.3,82.2 672.7,-12.4 
					606.3,-107.1 672.7,-201.7 606.3,-296.4 683.1,-405.8 725.1,-376.3 669,-296.4 735.4,-201.7 669,-107.1 735.4,-12.4 669,82.2 
					735.4,176.9 669,271.6 735.4,366.2 669,460.9 735.4,555.5 669,650.2 735.4,744.8 669,839.5 735.4,934.2 669,1028.8 
					735.4,1123.4 669,1218.1 735.4,1312.8 669,1407.4 725.1,1487.3 				"/>
				<polygon class="st3" points="819.9,1516.8 743.1,1407.4 809.5,1312.8 743.1,1218.1 809.5,1123.4 743.1,1028.8 809.5,934.2 
					743.1,839.5 809.5,744.8 743.1,650.2 809.5,555.5 743.1,460.9 809.5,366.2 743.1,271.6 809.5,176.9 743.1,82.2 809.5,-12.4 
					743.1,-107.1 809.5,-201.7 743.1,-296.4 819.9,-405.8 861.9,-376.3 805.7,-296.4 872.2,-201.7 805.7,-107.1 872.2,-12.4 
					805.7,82.2 872.2,176.9 805.7,271.6 872.2,366.2 805.7,460.9 872.2,555.5 805.7,650.2 872.2,744.8 805.7,839.5 872.2,934.2 
					805.7,1028.8 872.2,1123.4 805.7,1218.1 872.2,1312.8 805.7,1407.4 861.9,1487.3 				"/>
				<polygon class="st3" points="959,1516.8 882.1,1407.4 948.6,1312.8 882.1,1218.1 948.6,1123.4 882.1,1028.8 948.6,934.2 
					882.1,839.5 948.6,744.8 882.1,650.2 948.6,555.5 882.1,460.9 948.6,366.2 882.1,271.6 948.6,176.9 882.1,82.2 948.6,-12.4 
					882.1,-107.1 948.6,-201.7 882.1,-296.4 959,-405.8 1000.9,-376.3 944.8,-296.4 1011.3,-201.7 944.8,-107.1 1011.3,-12.4 
					944.8,82.2 1011.3,176.9 944.8,271.6 1011.3,366.2 944.8,460.9 1011.3,555.5 944.8,650.2 1011.3,744.8 944.8,839.5 
					1011.3,934.2 944.8,1028.8 1011.3,1123.4 944.8,1218.1 1011.3,1312.8 944.8,1407.4 1000.9,1487.3 				"/>
				<polygon class="st3" points="1095.8,1516.8 1018.9,1407.4 1085.4,1312.8 1018.9,1218.1 1085.4,1123.4 1018.9,1028.8 
					1085.4,934.2 1018.9,839.5 1085.4,744.8 1018.9,650.2 1085.4,555.5 1018.9,460.9 1085.4,366.2 1018.9,271.6 1085.4,176.9 
					1018.9,82.2 1085.4,-12.4 1018.9,-107.1 1085.4,-201.7 1018.9,-296.4 1095.8,-405.8 1137.7,-376.3 1081.6,-296.4 1148.1,-201.7 
					1081.6,-107.1 1148.1,-12.4 1081.6,82.2 1148.1,176.9 1081.6,271.6 1148.1,366.2 1081.6,460.9 1148.1,555.5 1081.6,650.2 
					1148.1,744.8 1081.6,839.5 1148.1,934.2 1081.6,1028.8 1148.1,1123.4 1081.6,1218.1 1148.1,1312.8 1081.6,1407.4 1137.7,1487.3 
									"/>
				<polygon class="st3" points="1232.5,1516.8 1155.7,1407.4 1222.2,1312.8 1155.7,1218.1 1222.2,1123.4 1155.7,1028.8 
					1222.2,934.2 1155.7,839.5 1222.2,744.8 1155.7,650.2 1222.2,555.5 1155.7,460.9 1222.2,366.2 1155.7,271.6 1222.2,176.9 
					1155.7,82.2 1222.2,-12.4 1155.7,-107.1 1222.2,-201.7 1155.7,-296.4 1232.5,-405.8 1274.5,-376.3 1218.4,-296.4 1284.9,-201.7 
					1218.4,-107.1 1284.9,-12.4 1218.4,82.2 1284.9,176.9 1218.4,271.6 1284.9,366.2 1218.4,460.9 1284.9,555.5 1218.4,650.2 
					1284.9,744.8 1218.4,839.5 1284.9,934.2 1218.4,1028.8 1284.9,1123.4 1218.4,1218.1 1284.9,1312.8 1218.4,1407.4 1274.5,1487.3 
									"/>
				<polygon class="st3" points="1369.3,1516.8 1292.5,1407.4 1359,1312.8 1292.5,1218.1 1359,1123.4 1292.5,1028.8 1359,934.2 
					1292.5,839.5 1359,744.8 1292.5,650.2 1359,555.5 1292.5,460.9 1359,366.2 1292.5,271.6 1359,176.9 1292.5,82.2 1359,-12.4 
					1292.5,-107.1 1359,-201.7 1292.5,-296.4 1369.3,-405.8 1411.3,-376.3 1355.2,-296.4 1421.7,-201.7 1355.2,-107.1 1421.7,-12.4 
					1355.2,82.2 1421.7,176.9 1355.2,271.6 1421.7,366.2 1355.2,460.9 1421.7,555.5 1355.2,650.2 1421.7,744.8 1355.2,839.5 
					1421.7,934.2 1355.2,1028.8 1421.7,1123.4 1355.2,1218.1 1421.7,1312.8 1355.2,1407.4 1411.3,1487.3 				"/>
				<polygon class="st3" points="1506.1,1516.8 1429.3,1407.4 1495.8,1312.8 1429.3,1218.1 1495.8,1123.4 1429.3,1028.8 
					1495.8,934.2 1429.3,839.5 1495.8,744.8 1429.3,650.2 1495.8,555.5 1429.3,460.9 1495.8,366.2 1429.3,271.6 1495.8,176.9 
					1429.3,82.2 1495.8,-12.4 1429.3,-107.1 1495.8,-201.7 1429.3,-296.4 1506.1,-405.8 1548.1,-376.3 1492,-296.4 1558.5,-201.7 
					1492,-107.1 1558.5,-12.4 1492,82.2 1558.5,176.9 1492,271.6 1558.5,366.2 1492,460.9 1558.5,555.5 1492,650.2 1558.5,744.8 
					1492,839.5 1558.5,934.2 1492,1028.8 1558.5,1123.4 1492,1218.1 1558.5,1312.8 1492,1407.4 1548.1,1487.3 				"/>
			</g>
		</g>
	</g>
</g>
</svg>
