<svg xmlns="http://www.w3.org/2000/svg" viewBox="0 0 448.29 410.09"><defs><style>.a{fill:#5baf9f;}.b{fill:#33abdc;}.c{fill:#04487f;}.d{fill:#0097cb;}.e{fill:#a8d4d8;}.f{fill:#84babb;}.g{fill:#ffe08c;}.h{fill:#b1cb3a;}.i{fill:#fff;}.j{fill:#eeeeb6;}.k{fill:#0088ac;}.l{fill:#05436f;}.m{fill:#ffe004;}.n{fill:#ffed82;}.o{fill:#e4be02;}.p{fill:#e6e5e5;}.q{fill:#fff6c4;}</style></defs><title>Asset 1</title><ellipse class="a" cx="238.97" cy="382.31" rx="141.91" ry="27.78"/><path class="b" d="M185.9,331.44c0-23.11,22.4-41.84-16.52-41.84-8.53,0-15.45,18.73-15.45,41.84a82.08,82.08,0,0,0,1.21,14c-7,1.49-13.07,6.82-13.07,11.35s1.23,7.39,2.64,9.18c.09,6.62,3.12,9.36,7.25,9.36l.74,0c.41,2.82,1.43,6.07,3.36,7.27a13.24,13.24,0,0,0,6.85,2.37c7,0,8.79-9.41,12.23-9.55C203,374.23,185.9,353.89,185.9,331.44Z"/><path class="c" d="M156.61,356a13.6,13.6,0,0,0-4.52,2.19,16.16,16.16,0,0,0-3.54,3.43,15.68,15.68,0,0,0-1.27,2.1c-.4.71-.75,1.44-1.17,2.15a10.33,10.33,0,0,0-.6,1.08c-.21.36-.4.73-.63,1.09a18.23,18.23,0,0,1-1.33,2.26l-.21,0a13.43,13.43,0,0,1,.12-2.7,15.49,15.49,0,0,1,.72-2.6,13.92,13.92,0,0,1,3.07-4.45,17.54,17.54,0,0,1,4.29-3.24,13.16,13.16,0,0,1,5.05-1.49Z"/><path class="c" d="M163.21,363.88a20.17,20.17,0,0,0-4,3.59,26.42,26.42,0,0,0-3.13,4.32,23.12,23.12,0,0,0-1.16,2.39c-.17.41-.37.8-.55,1.2s-.37.8-.57,1.2a13,13,0,0,0-.6,1.19c-.21.4-.4.8-.63,1.2a21.86,21.86,0,0,1-1.36,2.43l-.21,0a14.67,14.67,0,0,1,.83-5.59,18.17,18.17,0,0,1,2.83-4.9,27.79,27.79,0,0,1,3.81-4.14,18.78,18.78,0,0,1,4.68-3Z"/><path class="d" d="M327.06,375.31c4.13,0,7.16-2.75,7.25-9.36,1.41-1.79,2.64-4.7,2.64-9.18s-6-9.87-13.07-11.35a82.08,82.08,0,0,0,1.21-14c0-23.11-6.92-41.84-15.45-41.84-38.92,0-16.52,18.73-16.52,41.84,0,22.45-17.12,42.79,10.76,43.92,3.43.15,5.23,9.55,12.23,9.55a13.24,13.24,0,0,0,6.85-2.37c1.94-1.2,3-4.45,3.36-7.27Z"/><path class="e" d="M162.36,81.08A83.9,83.9,0,0,1,195.91,4.31a8.27,8.27,0,0,1,4.93-1.64,8.53,8.53,0,0,1,6.41,2.93,8.26,8.26,0,0,1,2,6.63,260.08,260.08,0,0,0-.36,63.59l.3,2.65-46.53,5.26Z"/><path class="e" d="M337.91,81.08A83.9,83.9,0,0,0,304.36,4.31a8.27,8.27,0,0,0-4.93-1.64A8.53,8.53,0,0,0,293,5.6a8.26,8.26,0,0,0-2,6.63,260.08,260.08,0,0,1,.36,63.59l-.3,2.65,46.53,5.26Z"/><path class="f" d="M329.38,81.08A83.9,83.9,0,0,0,295.83,4.31c-.23-.17-.48-.31-.72-.45a8.47,8.47,0,0,1,4.32-1.19,8.27,8.27,0,0,1,4.93,1.64,83.9,83.9,0,0,1,33.55,76.77l-.3,2.65-8.42-1Z"/><path class="c" d="M299.42,5.33a5.6,5.6,0,0,1,3.35,1.12,80.91,80.91,0,0,1,32.49,74.33L294,76.12a263.9,263.9,0,0,0-.36-64.25,5.79,5.79,0,0,1,5.75-6.54m0-5.33A11.2,11.2,0,0,0,291,3.84a10.89,10.89,0,0,0-2.62,8.74,257.47,257.47,0,0,1,.35,62.94l-.6,5.3,5.3.6,41.23,4.66,5.3.6.6-5.3A86.58,86.58,0,0,0,305.94,2.16,10.92,10.92,0,0,0,299.42,0Z"/><path class="c" d="M303.75,40.91c.22,2,.29,4.09.39,6.14l.26,6.14.42,12.29-3.2-.11,1.18-12.23.54-6.12C303.5,45,303.7,43,303.75,40.91Z"/><path class="c" d="M312.28,33.45a60.32,60.32,0,0,1,1.56,7.9q.56,4,.89,8c.23,2.68.38,5.37.52,8.05s.19,5.38.24,8.07l-3.2-.11c.22-2.65.41-5.31.56-8s.25-5.32.28-8,0-5.33-.08-8A60,60,0,0,0,312.28,33.45Z"/><path class="c" d="M320.81,43a7.46,7.46,0,0,1,1.54,2.87,30.73,30.73,0,0,1,.85,3.18,62.68,62.68,0,0,1,1,6.49c.25,2.18.43,4.36.55,6.54s.21,4.37.29,6.56l-3.2-.11c.19-2.15.39-4.3.51-6.45s.23-4.31.25-6.46a61.52,61.52,0,0,0-.22-6.45A30.14,30.14,0,0,0,322,46,7.3,7.3,0,0,0,320.81,43Z"/><path class="g" d="M170.88,81.08A83.9,83.9,0,0,1,204.44,4.31c.23-.17.48-.31.72-.45a8.47,8.47,0,0,0-4.32-1.19,8.27,8.27,0,0,0-4.93,1.64,83.9,83.9,0,0,0-33.55,76.77l.3,2.65,8.42-1Z"/><path class="c" d="M200.84,5.33a5.79,5.79,0,0,1,5.75,6.54,263.9,263.9,0,0,0-.36,64.25L165,80.78A80.91,80.91,0,0,1,197.49,6.45a5.6,5.6,0,0,1,3.35-1.12m0-5.33h0a10.92,10.92,0,0,0-6.51,2.16,86.58,86.58,0,0,0-34.62,79.22l.6,5.3,5.3-.6,41.23-4.66,5.3-.6-.6-5.3a257.47,257.47,0,0,1,.35-62.94,10.89,10.89,0,0,0-2.62-8.74A11.2,11.2,0,0,0,200.84,0Z"/><path class="c" d="M322.42,356a13.6,13.6,0,0,1,4.52,2.19,16.16,16.16,0,0,1,3.54,3.43,15.68,15.68,0,0,1,1.27,2.1c.4.71.75,1.44,1.17,2.15a10.33,10.33,0,0,1,.6,1.08c.21.36.4.73.63,1.09a18.23,18.23,0,0,0,1.33,2.26l.21,0a13.43,13.43,0,0,0-.12-2.7,15.49,15.49,0,0,0-.72-2.6,13.92,13.92,0,0,0-3.07-4.45,17.54,17.54,0,0,0-4.29-3.24,13.16,13.16,0,0,0-5.05-1.49Z"/><path class="c" d="M315.81,363.88a20.17,20.17,0,0,1,4,3.59A26.42,26.42,0,0,1,323,371.8a23.12,23.12,0,0,1,1.16,2.39c.17.41.37.8.55,1.2s.37.8.57,1.2a13,13,0,0,1,.6,1.19c.21.4.4.8.63,1.2a21.86,21.86,0,0,0,1.36,2.43l.21,0a14.67,14.67,0,0,0-.83-5.59,18.17,18.17,0,0,0-2.83-4.9,27.79,27.79,0,0,0-3.81-4.14,18.78,18.78,0,0,0-4.68-3Z"/><ellipse class="g" cx="205.37" cy="88.62" rx="51.44" ry="19.46"/><ellipse class="b" cx="210.7" cy="88.62" rx="51.44" ry="19.46"/><ellipse class="b" cx="292.79" cy="88.62" rx="51.44" ry="19.46"/><ellipse class="h" cx="338.84" cy="106.48" rx="10.76" ry="34.75" transform="translate(17.8 258.43) rotate(-42.77)"/><ellipse class="h" cx="346.07" cy="143.09" rx="10.76" ry="45.4" transform="translate(-18.63 228.14) rotate(-35.59)"/><ellipse class="h" cx="348.08" cy="175.95" rx="13.49" ry="56.89" transform="translate(-41.75 163.6) rotate(-25)"/><ellipse class="h" cx="344.61" cy="223.69" rx="17.09" ry="56.89" transform="matrix(0.96, -0.27, 0.27, 0.96, -47.72, 101.74)"/><ellipse class="b" cx="257.56" cy="67.28" rx="23.47" ry="5.56" transform="translate(52.95 237.57) rotate(-54.41)"/><ellipse class="b" cx="254.36" cy="61.95" rx="5.56" ry="23.47" transform="translate(-6.71 42.42) rotate(-9.41)"/><ellipse class="b" cx="249.03" cy="70.48" rx="5.56" ry="23.47" transform="translate(-7.24 106.63) rotate(-23.83)"/><ellipse class="b" cx="247.97" cy="75.81" rx="5.56" ry="23.47" transform="translate(42.01 233.33) rotate(-54.41)"/><path class="b" d="M359.43,261.59s-29.24,58.64-114.67,58.64c-60,0-86.86-25.16-98.21-42.38-.42-.64-6.61,4.41-7.68,3.82-6.93-3.82-10.84-19.9-10.84-19.9l4.14-54.55-1.46-27.49L124.26,168l22.08-35.27-11.9,2-2.27-7,18.61-26.07,19.95-12.79H327.44Z"/><circle class="i" cx="249.69" cy="147.66" r="49.96"/><path class="b" d="M249.69,92.62a52.49,52.49,0,0,0-52.45,50.47c0,.67,104.92.42,104.88-.37A52.49,52.49,0,0,0,249.69,92.62Z"/><path class="d" d="M184.44,316.05a55.07,55.07,0,0,0-2.63,15.39c0,20.87,15,40.54-5.3,44.13-1.54.27-3.21,5.83-3.21,5.83L184,375.95l8.35-3.4-2.14-33.73.53-21.86-9.21-12.19S181.15,312.76,184.44,316.05Z"/><path class="g" d="M204.7,143c.62-18.21,8.68-34.29,20.88-44.57a52.48,52.48,0,0,0-28.35,44.61c0,.28,18.72.4,40.36.39C219.29,143.46,204.69,143.32,204.7,143Z"/><path class="d" d="M252.73,92.71C265.29,104,273.66,122,274.4,142.53c0,.5-27.7.83-54.64.92,30.83.11,82.38-.18,82.35-.73A52.49,52.49,0,0,0,252.73,92.71Z"/><path class="c" d="M330.51,143.25c-13.23-.67-26.45-1-39.68-1.25-6.61-.15-13.23-.18-19.84-.27l-19.84-.08-19.84.09c-6.61.09-13.23.12-19.84.27-13.23.24-26.45.58-39.68,1.24,8.46.42,16.93.71,25.39.93-.08,1.15-.14,2.31-.14,3.48a52.63,52.63,0,0,0,105.26,0c0-1.14-.06-2.27-.13-3.4C311.62,144,321.07,143.73,330.51,143.25ZM297,147.66a47.3,47.3,0,0,1-94.59,0c0-1.13.06-2.24.14-3.35l9,.18c6.34.14,12.67.18,19,.26a23.48,23.48,0,0,0-3.41,20,10.28,10.28,0,1,1,12.4,14.71,23.51,23.51,0,0,0,29.42-34.73H271c6.61-.09,13.23-.12,19.84-.27l6-.12C296.93,145.47,297,146.56,297,147.66Z"/><path class="c" d="M204.84,185.37a56.06,56.06,0,0,0,89.7,0,48,48,0,0,1-18.77,18.8,52.43,52.43,0,0,1-12.58,5.07,53.71,53.71,0,0,1-27,0,52.37,52.37,0,0,1-12.58-5.07A48.08,48.08,0,0,1,204.84,185.37Z"/><path class="i" d="M213.15,258.1l-25.81-10.57a3.79,3.79,0,0,0-4.93,5l7.65,18.12a3.79,3.79,0,0,0,4.95,2l18.16-7.56A3.79,3.79,0,0,0,213.15,258.1Z"/><path class="i" d="M300.2,246.47,274.39,257a3.79,3.79,0,0,0,0,7l18.16,7.56a3.79,3.79,0,0,0,4.95-2l7.65-18.12A3.79,3.79,0,0,0,300.2,246.47Z"/><path class="c" d="M167.19,233.34c6,3.53,11.73,7.37,17.77,10.58a122.88,122.88,0,0,0,18.57,8.32,116.41,116.41,0,0,0,19.59,4.91,137.53,137.53,0,0,0,20.15,1.51,144.62,144.62,0,0,0,20.14-1.54A116.65,116.65,0,0,0,283,252.18a124.78,124.78,0,0,0,18.58-8.33c6.05-3.2,11.81-7,17.82-10.51a187.74,187.74,0,0,1-16.31,13c-1.44,1-2.9,2-4.4,2.86l-2.24,1.38-2.3,1.29c-.77.42-1.52.88-2.31,1.27l-2.37,1.16c-.79.38-1.58.79-2.38,1.14l-2.43,1a103.4,103.4,0,0,1-20.27,6.14,124.3,124.3,0,0,1-21.1,1.93,133.11,133.11,0,0,1-21.09-1.92,100.57,100.57,0,0,1-38.72-16.25A180.36,180.36,0,0,1,167.19,233.34Z"/><path class="c" d="M315.17,227.29a8.57,8.57,0,0,1,1,1.76,13.69,13.69,0,0,0,.89,1.63,15.1,15.1,0,0,0,5.32,4.68,13.69,13.69,0,0,0,1.73.68,8.54,8.54,0,0,1,1.88.78c-.69,0-1.31.15-2,.19a7.62,7.62,0,0,1-2.1-.17,9.22,9.22,0,0,1-6.22-5.47,7.62,7.62,0,0,1-.44-2.06C315.19,228.61,315.22,228,315.17,227.29Z"/><path class="c" d="M172.49,227.29c0,.68,0,1.32-.07,2a7.62,7.62,0,0,1-.44,2.06,9.22,9.22,0,0,1-6.22,5.47,7.62,7.62,0,0,1-2.1.17c-.69,0-1.32-.15-2-.19a8.54,8.54,0,0,1,1.88-.78,11.86,11.86,0,0,0,4.67-2.7,13.51,13.51,0,0,0,2.38-2.66,13.69,13.69,0,0,0,.89-1.63A8.56,8.56,0,0,1,172.49,227.29Z"/><path class="d" d="M363.54,177.51c4,2.74,7.2,3.74,8.95,2.49,4.83-3.46-3.08-22.79-17.67-43.18-1.92-2.68-3.86-5.24-5.79-7.67,6.11,3.71,11.11,5,13.4,2.84,4.36-4-2.67-18.73-15.7-32.82-1.58-1.71-3.17-3.32-4.76-4.84a9,9,0,0,0,2.26-5.72c0-9.46-17.86-17.34-41.53-19.09L299,66.31s-43.16,3-36.51,6.58c29.48,16,68.94,39.45,70.07,119.24C334,290.72,289.73,320.23,250,320.23h26.74l37-12.79,39-31.24h0c2.63,2,5.11,2.87,7.29,2.25,8.71-2.45,9.49-27,2-55.68,4.16,4,7.69,5.85,10.06,4.75C378.3,224.64,374.4,203,363.54,177.51Z"/><path class="c" d="M196.52,40.91c0,2,.25,4.08.41,6.12l.54,6.12,1.18,12.23-3.2.11.42-12.29.26-6.14C196.23,45,196.3,42.95,196.52,40.91Z"/><path class="c" d="M188,33.45a60,60,0,0,0-.76,8q-.16,4-.08,8c0,2.66.15,5.33.28,8s.34,5.32.56,8l-3.2.11c0-2.69.12-5.38.24-8.07s.28-5.37.52-8.05.51-5.36.89-8A60.32,60.32,0,0,1,188,33.45Z"/><path class="c" d="M179.46,43a7.3,7.3,0,0,0-1.16,3,30.15,30.15,0,0,0-.45,3.19,61.53,61.53,0,0,0-.22,6.45c0,2.15.11,4.31.25,6.46s.32,4.3.51,6.45l-3.2.11c.08-2.19.14-4.37.29-6.56s.31-4.37.55-6.54a62.67,62.67,0,0,1,1-6.49,30.73,30.73,0,0,1,.85-3.18A7.46,7.46,0,0,1,179.46,43Z"/><path class="j" d="M178.79,106.45h0Z"/><path class="g" d="M141.87,132.54a3.49,3.49,0,0,1-.81-.55c-4.36-4,2.67-18.73,15.7-32.82,1.58-1.71,3.17-3.32,4.76-4.84a10.5,10.5,0,0,1-1.82-3.2,107,107,0,0,0-8.27,8c-13,14.09-20.06,28.78-15.7,32.82C137,133.19,139.16,133.31,141.87,132.54Z"/><path class="g" d="M125.68,180c1.13.81,2.86.66,5-.27-4.16-4.08,3.72-23,18-42.91,1.92-2.68,8-11.43,10-13.86-3.05,1.85-9.51,6.19-9.51,6.19-1,1.32-4.79,6.28-5.79,7.67C128.75,157.21,120.84,176.55,125.68,180Z"/><path class="g" d="M141.43,222.77a20.77,20.77,0,0,1-6.47,4.63c-6.21,26.65-5.07,48.74,3.18,51.06a6.41,6.41,0,0,0,4.28-.44C134.71,273.91,134.29,250.24,141.43,222.77Z"/><path class="k" d="M297.21,331.44c0,20.87-15,40.54,5.3,44.13,1.54.27,3.21,5.83,3.21,5.83l-10.66-5.45-8.35-3.4,2.14-33.73L288.31,317l13-8.46a13.69,13.69,0,0,1-5.36,11.73A44.1,44.1,0,0,1,297.21,331.44Z"/><path class="c" d="M177.78,181.47a25.27,25.27,0,0,1-.65,11.48,16.26,16.26,0,0,1-2.68,5.45,9.77,9.77,0,0,1-2.43,2.25,6.33,6.33,0,0,1-7,0,9.83,9.83,0,0,1-2.43-2.25,16.25,16.25,0,0,1-2.69-5.45,25.21,25.21,0,0,1-.64-11.48,47.52,47.52,0,0,0,3,10.62,17.71,17.71,0,0,0,2.68,4.37A7.22,7.22,0,0,0,166.7,198a3.4,3.4,0,0,0,3.69,0,7.29,7.29,0,0,0,1.73-1.49,17.71,17.71,0,0,0,2.68-4.38A47.26,47.26,0,0,0,177.78,181.47Z"/><path class="c" d="M329.7,197.11a25.27,25.27,0,0,1-.65,11.48,16.26,16.26,0,0,1-2.68,5.45,9.76,9.76,0,0,1-2.43,2.25,6.33,6.33,0,0,1-7,0,9.83,9.83,0,0,1-2.43-2.25,16.26,16.26,0,0,1-2.69-5.45,25.21,25.21,0,0,1-.64-11.48,47.52,47.52,0,0,0,3,10.62,17.71,17.71,0,0,0,2.68,4.37,7.22,7.22,0,0,0,1.73,1.49,3.4,3.4,0,0,0,3.69,0A7.29,7.29,0,0,0,324,212.1a17.71,17.71,0,0,0,2.68-4.38A47.26,47.26,0,0,0,329.7,197.11Z"/><path class="c" d="M353.69,161.93A25.27,25.27,0,0,1,353,173.4a16.26,16.26,0,0,1-2.68,5.45,9.76,9.76,0,0,1-2.43,2.25,6.33,6.33,0,0,1-7,0,9.83,9.83,0,0,1-2.43-2.25,16.26,16.26,0,0,1-2.69-5.45,25.21,25.21,0,0,1-.64-11.48,47.52,47.52,0,0,0,3,10.62,17.71,17.71,0,0,0,2.68,4.37,7.22,7.22,0,0,0,1.73,1.49,3.4,3.4,0,0,0,3.69,0,7.29,7.29,0,0,0,1.73-1.49,17.71,17.71,0,0,0,2.68-4.38A47.26,47.26,0,0,0,353.69,161.93Z"/><path class="c" d="M332.37,108.62a25.27,25.27,0,0,1-.65,11.48,16.26,16.26,0,0,1-2.68,5.45,9.76,9.76,0,0,1-2.43,2.25,6.33,6.33,0,0,1-7,0,9.83,9.83,0,0,1-2.43-2.25,16.26,16.26,0,0,1-2.69-5.45,25.21,25.21,0,0,1-.64-11.48,47.52,47.52,0,0,0,3,10.62,17.71,17.71,0,0,0,2.68,4.37,7.22,7.22,0,0,0,1.73,1.49,3.4,3.4,0,0,0,3.69,0,7.29,7.29,0,0,0,1.73-1.49,17.71,17.71,0,0,0,2.68-4.38A47.26,47.26,0,0,0,332.37,108.62Z"/><path class="c" d="M183.11,108.62a25.27,25.27,0,0,1-.65,11.48,16.26,16.26,0,0,1-2.68,5.45,9.76,9.76,0,0,1-2.43,2.25,6.33,6.33,0,0,1-7,0,9.83,9.83,0,0,1-2.43-2.25,16.26,16.26,0,0,1-2.69-5.45,25.21,25.21,0,0,1-.64-11.48,47.52,47.52,0,0,0,3,10.62,17.71,17.71,0,0,0,2.68,4.37A7.22,7.22,0,0,0,172,125.1a3.4,3.4,0,0,0,3.69,0,7.29,7.29,0,0,0,1.73-1.49,17.71,17.71,0,0,0,2.68-4.38A47.26,47.26,0,0,0,183.11,108.62Z"/><path class="l" d="M183.11,268.54a25.27,25.27,0,0,1-.65,11.48,16.26,16.26,0,0,1-2.68,5.45,9.76,9.76,0,0,1-2.43,2.25,6.33,6.33,0,0,1-7,0,9.83,9.83,0,0,1-2.43-2.25,16.26,16.26,0,0,1-2.69-5.45,25.21,25.21,0,0,1-.64-11.48,47.52,47.52,0,0,0,3,10.62,17.71,17.71,0,0,0,2.68,4.37A7.22,7.22,0,0,0,172,285a3.4,3.4,0,0,0,3.69,0,7.29,7.29,0,0,0,1.73-1.49,17.71,17.71,0,0,0,2.68-4.38A47.26,47.26,0,0,0,183.11,268.54Z"/><path class="c" d="M268.4,286.66a25.27,25.27,0,0,1-.65,11.48,16.26,16.26,0,0,1-2.68,5.45,9.76,9.76,0,0,1-2.43,2.25,6.33,6.33,0,0,1-7,0,9.83,9.83,0,0,1-2.43-2.25,16.26,16.26,0,0,1-2.69-5.45,25.21,25.21,0,0,1-.64-11.48,47.52,47.52,0,0,0,3,10.62,17.71,17.71,0,0,0,2.68,4.37,7.22,7.22,0,0,0,1.73,1.49,3.4,3.4,0,0,0,3.69,0,7.29,7.29,0,0,0,1.73-1.49,17.71,17.71,0,0,0,2.68-4.38A47.26,47.26,0,0,0,268.4,286.66Z"/><path class="c" d="M353.69,248.82a25.27,25.27,0,0,1-.65,11.48,16.26,16.26,0,0,1-2.68,5.45,9.76,9.76,0,0,1-2.43,2.25,6.33,6.33,0,0,1-7,0,9.83,9.83,0,0,1-2.43-2.25,16.26,16.26,0,0,1-2.69-5.45,25.21,25.21,0,0,1-.64-11.48,47.52,47.52,0,0,0,3,10.62,17.71,17.71,0,0,0,2.68,4.37,7.22,7.22,0,0,0,1.73,1.49,3.4,3.4,0,0,0,3.69,0,7.29,7.29,0,0,0,1.73-1.49,17.71,17.71,0,0,0,2.68-4.38A47.26,47.26,0,0,0,353.69,248.82Z"/><path class="c" d="M379.47,210.07a144.86,144.86,0,0,0-6.94-24.39,8.12,8.12,0,0,0,3.06-1.33c7.05-5,2-17.5.28-21.6A142.69,142.69,0,0,0,362.15,138a9.06,9.06,0,0,0,3.91-2.11c5.09-4.71,2.73-12.85-.14-18.85-3.19-6.67-8.61-14.3-15.27-21.5q-1-1.07-2-2.12a13.09,13.09,0,0,0,.92-4.82c0-7.57-6.57-14.23-18.51-18.74-10.3-3.9-23.89-6-38.26-6a132.31,132.31,0,0,0-21.06,1.63c4.74-8.17,8.24-17.56,2.59-21.6a6.92,6.92,0,0,0-4.06-1.27h0c-1.08,0-3.69,0-8.46,3.83a49,49,0,0,0-1.9-4.84c-.93-2-3.75-8.13-9.13-8.14h0a6.72,6.72,0,0,0-1.09.09c-3.84.64-6.18,4-7,10l-.06.48a7.39,7.39,0,0,0-2.49-.44,6.74,6.74,0,0,0-2.74.57c-3.7,1.63-5.08,5.65-4.16,12.18a13.53,13.53,0,0,0-2.38-.23,7.39,7.39,0,0,0-6.31,3,7,7,0,0,0-1.06,6,135,135,0,0,0-18.11-1.19c-14.37,0-28,2.15-38.26,6C155.18,74.39,148.6,81,148.6,88.62a13.09,13.09,0,0,0,.92,4.82q-1,1-2,2.12c-6.66,7.2-12.08,14.83-15.27,21.5-2.87,6-5.23,14.15-.14,18.85A9.06,9.06,0,0,0,136,138a142.69,142.69,0,0,0-13.73,24.73c-1.67,4.09-6.77,16.55.28,21.6a8.12,8.12,0,0,0,3.06,1.33,144.86,144.86,0,0,0-6.94,24.39c-.79,4.55-3.21,18.41,5.09,22.28,1.16.54,2.79-1.09,4.11-1.09l.75,0c-1.94,10.11-3.2,21.52-2.92,29.41.47,13.31,4.16,21,11,23a10.69,10.69,0,0,0,2.89.4A12.73,12.73,0,0,0,145,282.7a100.1,100.1,0,0,0,10.87,11.89,44.91,44.91,0,0,0-2.42,5.42c-3.13,8.48-4.86,19.64-4.86,31.43a86.55,86.55,0,0,0,.61,10.24c-7.9,3.28-12.48,9.74-12.48,15.08a20.81,20.81,0,0,0,2.72,10.93c.6,7.49,4.5,11.22,8.9,12.46a12.38,12.38,0,0,0,4.89,6.93,18.3,18.3,0,0,0,9.66,3.17c6.9,0,10.55-5.18,12.73-8.28.3-.43.67-1,1-1.35,8.27-.52,13.64-2.74,16.84-7,4.84-6.39,2.79-15,.62-24.07-1.4-5.88-2.85-12-2.85-18.15a50.9,50.9,0,0,1,2.48-14.11c15.2,5.46,32.29,8.23,51.05,8.23a166,166,0,0,0,41.44-5,44.12,44.12,0,0,1,1.59,10.9c0,6.19-1.45,12.27-2.85,18.15-2.17,9.09-4.21,17.68.62,24.07,3.19,4.22,8.56,6.44,16.84,7,.3.39.68.92,1,1.35,2.18,3.1,5.83,8.28,12.73,8.28a18.3,18.3,0,0,0,9.66-3.17,12.38,12.38,0,0,0,4.89-6.93c4.4-1.24,8.31-5,8.9-12.46a20.81,20.81,0,0,0,2.72-10.93c0-5.34-4.58-11.8-12.48-15.08a86.55,86.55,0,0,0,.61-10.24A98.63,98.63,0,0,0,326.57,303a124.17,124.17,0,0,0,24.84-21.24,13.67,13.67,0,0,0,7.16,2.22,10.69,10.69,0,0,0,2.9-.4c6.81-1.92,10.5-9.64,11-23a126.7,126.7,0,0,0-2.56-27.5c-.2-1-.69-3.37-.69-3.37s4,3.12,5.2,2.58C382.68,228.48,380.26,214.62,379.47,210.07Zm-7.35,17.45a3.51,3.51,0,0,1-1.5.32c-2.26,0-5.2-1.81-8.56-5.06,7.45,28.68,6.67,53.23-2,55.68a5.34,5.34,0,0,1-1.45.2c-2.4,0-5.08-1.51-7.89-4.25a118.14,118.14,0,0,1-30.56,26.33,53.78,53.78,0,0,1,1.75,5.18h0l.06.24c.09.34.19.67.28,1h0a96.83,96.83,0,0,1,2.89,24.27,82.08,82.08,0,0,1-1.21,14c7,1.49,13.07,6.82,13.07,11.35s-1.23,7.39-2.64,9.18c-.09,6.62-3.12,9.36-7.25,9.36l-.74,0c-.41,2.82-1.43,6.07-3.36,7.27a13.24,13.24,0,0,1-6.85,2.37c-7,0-8.79-9.41-12.23-9.55-27.88-1.14-10.76-21.47-10.76-43.92a48.83,48.83,0,0,0-1.56-11.53h0c6.25-3.29,9.71-11.42,9.71-11.42a85.63,85.63,0,0,1-11.38,5.5,157.8,157.8,0,0,1-45.12,6.23c-22.34,0-40.23-4-54.49-9.94a45.35,45.35,0,0,1-8.77-5.52s3,8,7.12,10.94c0,0-2.73,10.16-2.73,15.73,0,22.45,17.12,42.79-10.76,43.92-3.43.15-5.23,9.55-12.23,9.55a13.24,13.24,0,0,1-6.85-2.37c-1.94-1.2-3-4.45-3.36-7.27l-.74,0c-4.13,0-7.16-2.75-7.25-9.36-1.41-1.79-2.64-4.7-2.64-9.18s6-9.87,13.07-11.35a82.08,82.08,0,0,1-1.21-14c0-12.85,2.14-24.33,5.5-32h0l.27-.59c.09-.21.19-.42.28-.62h0a25.64,25.64,0,0,1,2.78-4.61,93.5,93.5,0,0,1-16.45-18.15c-2.38,2.06-4.66,3.18-6.73,3.18a5.33,5.33,0,0,1-1.45-.2c-8.71-2.45-9.49-27-2-55.68-3.36,3.26-6.3,5.06-8.56,5.06a3.51,3.51,0,0,1-1.5-.32c-6.17-2.88-2.28-24.55,8.58-50-2.87,2-5.31,3-7.1,3a3.09,3.09,0,0,1-1.84-.53c-4.83-3.46,3.08-22.79,17.67-43.18,1.92-2.68,3.86-5.24,5.79-7.67-4.1,2.49-7.7,3.87-10.32,3.87a4.39,4.39,0,0,1-3.09-1c-4.36-4,2.67-18.73,15.7-32.82,1.58-1.71,3.17-3.32,4.76-4.84a9.05,9.05,0,0,1-2.26-5.71c0-10.75,23-19.46,51.44-19.46a116.2,116.2,0,0,1,30.24,3.72c-5.13-4.86-7.93-9.06-6.73-10.73a2.3,2.3,0,0,1,2-.73c2.18,0,5.78,1.26,10,3.47C238.07,56.51,237.38,50,239.55,49a1.44,1.44,0,0,1,.59-.12c1.86,0,4.81,3,7.93,7.91-1-10-.08-17.58,2.46-18l.22,0c2.64,0,6.05,7.51,8.25,17.77,4.7-5.29,9-8.63,11.27-8.63a1.6,1.6,0,0,1,1,.28c2.5,1.79-1.59,11.78-9.13,22.32-.36.5-.72,1-1.08,1.47,0,.46,0,.89,0,1.33a114,114,0,0,1,31.75-4.16c28.41,0,51.44,8.71,51.44,19.46A9.05,9.05,0,0,1,342,94.33c1.59,1.52,3.18,3.14,4.76,4.84,13,14.09,20.06,28.78,15.7,32.82a4.39,4.39,0,0,1-3.09,1c-2.62,0-6.21-1.38-10.32-3.87,1.93,2.43,3.87,5,5.79,7.67,14.59,20.39,22.5,39.72,17.67,43.18a3.09,3.09,0,0,1-1.84.53c-1.8,0-4.23-1.07-7.1-3C374.4,203,378.3,224.64,372.13,227.51Z"/><path class="b" d="M132.7,179.07S109.61,206,97.41,207.43c-9.49,1.11-12-15-12.7-22.24a22.52,22.52,0,0,1,.27-6.08c1-5.62,3.23-18.51,3.23-24.21,0-7.4-7.64-7.06-7.64-7.06H64.82s-6.52,0-6.52,6.32,3.19,6.86,6.52,7,12,0,12,0l0,4.46-21.23,0,3.58,29.83,5.68,22.58c3.74,13,18.27,23.49,32.6,21.35s37-13.71,37-13.71"/><path class="g" d="M96.17,208.15a13.19,13.19,0,0,0,9.86,1.33c6-1.33,22.52-13.19,29.45-22.52s11.06-15.06,11.06-15.06L137,176.17l-16.56,15.59Z"/><path class="c" d="M93.77,242.35c-13.77,0-27.62-10-31.51-23.55l-5.76-23L52.56,163H60.2c-2.36-1-4.56-3.38-4.56-8.82,0-6.55,5.48-9,9.17-9H80.53a11.17,11.17,0,0,1,7.62,2.75,9.28,9.28,0,0,1,2.73,7c0,5.73-2.05,17.93-3.27,24.68a19.9,19.9,0,0,0-.24,5.36c.85,9.28,3.21,16.32,6.29,18.82a4.36,4.36,0,0,0,3.45,1c7.17-.84,19.89-12.75,28.06-21.37,2.25-2.38,11.81-7.24,11.81-7.24s-3.86,6.49-5.49,8.29c-7.06,7.75-23.33,24.4-33.77,25.62a9.62,9.62,0,0,1-7.42-2.17c-5.51-4.47-7.53-14.69-8.24-22.47a25.18,25.18,0,0,1,.31-6.8c1-5.3,3.19-18.21,3.19-23.73a4.1,4.1,0,0,0-1.08-3.12,6,6,0,0,0-3.77-1.28H64.82c-1.13,0-3.85.44-3.85,3.66,0,4.17,1.25,4.23,4,4.36,3.2.16,11.7,0,11.79,0l2.69,0,0,9.83-20.9,0L61.77,195l5.63,22.42C71,229.73,84.52,238.64,97,236.78c13.72-2,39.08-14.52,39.31-14.63l-2.4,6.79c-.94.48-21.53,10.95-36.12,13.12A27.46,27.46,0,0,1,93.77,242.35Z"/><path class="d" d="M365.48,179.07s23.1,26.94,35.29,28.36c9.49,1.11,12-15,12.7-22.24a22.52,22.52,0,0,0-.27-6.08c-1-5.62,8.2-13.43,8.2-13.43l21.23,0L439,195.48l-5.68,22.58c-3.74,13-18.27,23.49-32.6,21.35s-37-13.71-37-13.71"/><path class="k" d="M409.8,206.29S403.34,218.13,388,210s-26.83-33.38-26.83-33.38L398.41,207Z"/><path class="c" d="M404.42,242.35c13.77,0,27.62-10,31.51-23.55l5.76-23L445.62,163H438c2.36-1-28.64,9.84-27.41,16.6a19.9,19.9,0,0,1,.24,5.36c-.85,9.28-3.21,16.32-6.29,18.82a4.36,4.36,0,0,1-3.45,1c-7.17-.84-19.89-12.75-28.06-21.37-2.25-2.38-11.81-7.24-11.81-7.24s3.86,6.49,5.49,8.29c7.06,7.75,23.33,24.4,33.77,25.62a9.62,9.62,0,0,0,7.42-2.17c5.51-4.47,7.53-14.69,8.24-22.47a25.18,25.18,0,0,0-.31-6.8c-1-5.3,2.9-10.28,2.9-10.28l20.9,0L436.42,195l-5.63,22.42c-3.55,12.32-17.12,21.23-29.62,19.37-13.72-2-39.08-14.52-39.31-14.63l2.4,6.79c.94.48,21.53,10.95,36.12,13.12A27.46,27.46,0,0,0,404.42,242.35Z"/><path class="m" d="M91.21,117.17A32.07,32.07,0,1,0,37.66,141a16,16,0,0,1,5.45,11.83v1c0,8.83,6.91,16.4,15.73,16.56a16,16,0,0,0,16.33-16v-1.72a15.57,15.57,0,0,1,5.35-11.56A32,32,0,0,0,91.21,117.17Z"/><path class="n" d="M48.26,153.81v-1A16,16,0,0,0,42.82,141,32,32,0,0,1,32.27,115.6C33,99.95,45.31,86,60.76,84.26c-18.83,0-35,15.18-35.78,31.34A32,32,0,0,0,35.53,141,16,16,0,0,1,41,152.81v1c0,8.83,6.91,16.4,15.73,16.56a16,16,0,0,0,3.95-.43A16.56,16.56,0,0,1,48.26,153.81Z"/><path class="o" d="M57.74,83.49c15.94,1.86,28.32,17.25,28.32,33.69a32,32,0,0,1-10.69,23.89A15.57,15.57,0,0,0,70,152.63v1.72a16,16,0,0,1-12.39,15.6,15.41,15.41,0,0,0,3.34.43,16,16,0,0,0,16.33-16v-1.72a15.57,15.57,0,0,1,5.35-11.56,32,32,0,0,0,10.69-23.89C93.34,98.79,77.78,83.49,57.74,83.49Z"/><rect class="p" x="42.38" y="147.79" width="33.53" height="53.04"/><path class="q" d="M56.13,146.17h-3.2V127.81a3.18,3.18,0,0,1,3.18-3.18h7.12a3.18,3.18,0,0,1,3.18,3.18v17.63h-3.2V127.81l-7.1,0Z"/><path class="q" d="M68.55,130a6.4,6.4,0,1,1,6.4-6.4A6.41,6.41,0,0,1,68.55,130Zm0-9.61a3.2,3.2,0,1,0,3.2,3.2A3.21,3.21,0,0,0,68.55,120.36Z"/><path class="q" d="M50.8,130a6.4,6.4,0,1,1,6.4-6.4A6.41,6.41,0,0,1,50.8,130Zm0-9.61a3.2,3.2,0,1,0,3.2,3.2A3.21,3.21,0,0,0,50.8,120.36Z"/><path class="c" d="M81.36,146.5H76.49a15.06,15.06,0,0,0-1.31,6.13V192.8a6.61,6.61,0,0,1-6.61,6.61H49.72a6.61,6.61,0,0,1-6.61-6.61v-40a15.71,15.71,0,0,0-1.32-6.31H36.93a11.29,11.29,0,0,1,1.92,6.31v40a10.89,10.89,0,0,0,10.88,10.88H68.57A10.89,10.89,0,0,0,79.44,192.8V152.63a10.9,10.9,0,0,1,1.92-6.13Z"/><path class="m" d="M59.68,74a1.6,1.6,0,0,1-1.6-1.6V61.76a1.6,1.6,0,0,1,3.2,0V72.43A1.6,1.6,0,0,1,59.68,74Z"/><path class="m" d="M117.75,121.44H107.09a1.6,1.6,0,1,1,0-3.2h10.67a1.6,1.6,0,1,1,0,3.2Z"/><path class="m" d="M12.27,121.44H1.6a1.6,1.6,0,1,1,0-3.2H12.27a1.6,1.6,0,1,1,0,3.2Z"/><path class="m" d="M100.74,162.5a1.59,1.59,0,0,1-1.13-.47l-7.54-7.54a1.6,1.6,0,0,1,2.26-2.26l7.54,7.54a1.6,1.6,0,0,1-1.13,2.73Z"/><path class="m" d="M26.15,87.92A1.59,1.59,0,0,1,25,87.45L17.48,79.9a1.6,1.6,0,0,1,2.26-2.26l7.55,7.55a1.6,1.6,0,0,1-1.13,2.73Z"/><path class="m" d="M93.2,87.91a1.6,1.6,0,0,1-1.13-2.73l7.54-7.54a1.6,1.6,0,0,1,2.26,2.26l-7.54,7.54A1.59,1.59,0,0,1,93.2,87.91Z"/><path class="m" d="M18.61,162.5a1.6,1.6,0,0,1-1.13-2.73L25,152.23a1.6,1.6,0,0,1,2.26,2.26L19.74,162A1.59,1.59,0,0,1,18.61,162.5Z"/><path class="b" d="M37.81,162.8h0c0,4.22,2.88,7.64,6.43,7.64H56.63c3.55,0,6.43-3.42,6.43-7.64h0c0-4.22-2.88-7.64-6.43-7.64H44.24C40.69,155.16,37.81,158.58,37.81,162.8Z"/><path class="g" d="M56.63,156.23H44.24c-3.55,0-6.43,3.42-6.43,7.64h0a9,9,0,0,0,.26,2.13c.78-3.18,3.25-5.5,6.17-5.5H56.63c2.93,0,5.4,2.33,6.17,5.5a9,9,0,0,0,.26-2.13h0C63.06,159.65,60.18,156.23,56.63,156.23Z"/><path class="c" d="M56.63,173.1H44.24c-5,0-9.1-4.62-9.1-10.3s4.08-10.3,9.1-10.3H56.63c5,0,9.1,4.62,9.1,10.3S61.65,173.1,56.63,173.1ZM44.24,157.83c-2,0-3.77,2.28-3.77,5s1.73,5,3.77,5H56.63c2,0,3.77-2.28,3.77-5s-1.73-5-3.77-5Z"/><path class="b" d="M37.81,178.07h0c0,4.22,2.88,7.64,6.43,7.64H56.63c3.55,0,6.43-3.42,6.43-7.64h0c0-4.22-2.88-7.64-6.43-7.64H44.24C40.69,170.43,37.81,173.85,37.81,178.07Z"/><path class="g" d="M56.63,171.5H44.24c-3.55,0-6.43,3.42-6.43,7.64h0a9,9,0,0,0,.26,2.13c.78-3.18,3.25-5.5,6.17-5.5H56.63c2.93,0,5.4,2.33,6.17,5.5a9,9,0,0,0,.26-2.13h0C63.06,174.92,60.18,171.5,56.63,171.5Z"/><path class="c" d="M56.63,188.37H44.24c-5,0-9.1-4.62-9.1-10.3s4.08-10.3,9.1-10.3H56.63c5,0,9.1,4.62,9.1,10.3S61.65,188.37,56.63,188.37ZM44.24,173.1c-2,0-3.77,2.28-3.77,5s1.73,5,3.77,5H56.63c2,0,3.77-2.28,3.77-5s-1.73-5-3.77-5Z"/><path class="b" d="M37.81,193.34h0c0,4.22,2.88,7.64,6.43,7.64H56.63c3.55,0,6.43-3.42,6.43-7.64h0c0-4.22-2.88-7.64-6.43-7.64H44.24C40.69,185.7,37.81,189.12,37.81,193.34Z"/><path class="g" d="M56.63,186.77H44.24c-3.55,0-6.43,3.42-6.43,7.64h0a9,9,0,0,0,.26,2.13c.78-3.18,3.25-5.5,6.17-5.5H56.63c2.93,0,5.4,2.33,6.17,5.5a9,9,0,0,0,.26-2.13h0C63.06,190.19,60.18,186.77,56.63,186.77Z"/><path class="c" d="M56.63,203.64H44.24c-5,0-9.1-4.62-9.1-10.3s4.08-10.3,9.1-10.3H56.63c5,0,9.1,4.62,9.1,10.3S61.65,203.64,56.63,203.64ZM44.24,188.37c-2,0-3.77,2.28-3.77,5s1.73,5,3.77,5H56.63c2,0,3.77-2.28,3.77-5s-1.73-5-3.77-5Z"/><path class="b" d="M419.94,129.91c-5.05,0-9.15,3.7-9.15,8.26v22.31c0,4.56,4.09,8.26,9.15,8.26s9.15-3.7,9.15-8.26V138.18C429.09,133.61,425,129.91,419.94,129.91Z"/><path class="d" d="M422.34,160.48V138.18a8.48,8.48,0,0,0-7-8,10.07,10.07,0,0,1,2.13-.24c5.05,0,9.15,3.7,9.15,8.26v22.31c0,4.56-4.09,8.26-9.15,8.26a10.07,10.07,0,0,1-2.13-.24A8.48,8.48,0,0,0,422.34,160.48Z"/><path class="c" d="M419.94,171.41c-6.51,0-11.81-4.9-11.81-10.93V138.18c0-6,5.3-10.93,11.81-10.93s11.81,4.9,11.81,10.93v22.31C431.76,166.51,426.46,171.41,419.94,171.41Zm0-38.83c-3.57,0-6.48,2.51-6.48,5.6v22.31c0,3.09,2.91,5.6,6.48,5.6s6.48-2.51,6.48-5.6V138.18C426.42,135.09,423.52,132.58,419.94,132.58Z"/><path class="b" d="M439.19,155h-23c-3.55,0-6.43,3.42-6.43,7.64s2.88,7.64,6.43,7.64h23c3.55,0,6.43-3.42,6.43-7.64S442.74,155,439.19,155Z"/><path class="b" d="M439.19,170.31h-23c-3.55,0-6.43,3.42-6.43,7.64s2.88,7.64,6.43,7.64h23c3.55,0,6.43-3.42,6.43-7.64S442.74,170.31,439.19,170.31Z"/><path class="b" d="M439.19,185.58h-23c-3.55,0-6.43,3.42-6.43,7.64s2.88,7.64,6.43,7.64h23c3.55,0,6.43-3.42,6.43-7.64S442.74,185.58,439.19,185.58Z"/><path class="d" d="M438.66,162.67c0-4.22-2.88-7.64-6.43-7.64h4.26c3.55,0,6.43,3.42,6.43,7.64s-2.88,7.64-6.43,7.64h-4.26C435.78,170.31,438.66,166.89,438.66,162.67Z"/><path class="c" d="M439.19,173h-23c-5,0-9.1-4.62-9.1-10.3s4.08-10.3,9.1-10.3h23c5,0,9.1,4.62,9.1,10.3S444.21,173,439.19,173Zm-23-15.27c-2,0-3.77,2.28-3.77,5s1.73,5,3.77,5h23c2,0,3.77-2.28,3.77-5s-1.73-5-3.77-5Z"/><path class="d" d="M438.66,177.94c0-4.22-2.88-7.64-6.43-7.64h4.26c3.55,0,6.43,3.42,6.43,7.64s-2.88,7.64-6.43,7.64h-4.26C435.78,185.58,438.66,182.16,438.66,177.94Z"/><path class="c" d="M439.19,188.24h-23c-5,0-9.1-4.62-9.1-10.3s4.08-10.3,9.1-10.3h23c5,0,9.1,4.62,9.1,10.3S444.21,188.24,439.19,188.24Zm-23-15.27c-2,0-3.77,2.28-3.77,5s1.73,5,3.77,5h23c2,0,3.77-2.28,3.77-5s-1.73-5-3.77-5Z"/><path class="d" d="M438.66,193.21c0-4.22-2.88-7.64-6.43-7.64h4.26c3.55,0,6.43,3.42,6.43,7.64s-2.88,7.64-6.43,7.64h-4.26C435.78,200.85,438.66,197.43,438.66,193.21Z"/><path class="c" d="M439.19,203.51h-23c-5,0-9.1-4.62-9.1-10.3s4.08-10.3,9.1-10.3h23c5,0,9.1,4.62,9.1,10.3S444.21,203.51,439.19,203.51Zm-23-15.27c-2,0-3.77,2.28-3.77,5s1.73,5,3.77,5h23c2,0,3.77-2.28,3.77-5s-1.73-5-3.77-5Z"/><path class="b" d="M88.22,154.9c0-7.4-7.64-7.06-7.64-7.06H64.82s-6.52,0-6.52,6.32,3,10.65,6.29,10.81,12.79,0,12.79,0v-3.64h7.68l.08-.76,2.9-1.9Z"/><path class="g" d="M64.82,153.17H80.58s5.78-.25,7.28,4.56l.18-.12.18-3.78c0-7.4-7.64-7.06-7.64-7.06H64.82s-6.52,0-6.52,6.32a17.7,17.7,0,0,0,.43,3.93C60.17,153.22,64.82,153.17,64.82,153.17Z"/><path class="c" d="M71.27,166.7c-1.78,0-3.51,0-4.67-.07l-.81,0c-3-.08-10.14-.28-10.14-10.66,0-3.66,1-6.49,3.08-8.41a8.83,8.83,0,0,1,6.15-2.35H80.53a11.14,11.14,0,0,1,7.62,2.75,9.27,9.27,0,0,1,2.73,7v.19l-.43,6-5.3-.38.42-5.9a4.06,4.06,0,0,0-1.09-3,6,6,0,0,0-3.78-1.28h-16a3.57,3.57,0,0,0-2.34,1c-1.13,1.1-1.36,3.05-1.36,4.5,0,5.21,1.77,5.26,5,5.35l.91,0c3.2.16,11.46,0,11.55,0l.1,5.31C78.27,166.64,74.67,166.7,71.27,166.7Z"/><path class="c" d="M41.79,146.5A15,15,0,0,0,38,141.24,32.06,32.06,0,0,1,57,85.17q1.06-.07,2.11-.07a32.06,32.06,0,0,1,21.24,56.08,15.51,15.51,0,0,0-3.89,5.31h4.87a11.3,11.3,0,0,1,1.85-2.12A36.33,36.33,0,0,0,59.14,80.84c-.79,0-1.59,0-2.39.08a36.33,36.33,0,0,0-21.61,63.52,10.66,10.66,0,0,1,1.79,2.06Z"/><path class="c" d="M82.46,149.38H34.36a1.6,1.6,0,1,1,0-3.2h48.1a1.6,1.6,0,1,1,0,3.2Z"/></svg>