<?xml version="1.0" encoding="utf-8"?>
<!-- Generator: Adobe Illustrator 21.1.0, SVG Export Plug-In . SVG Version: 6.00 Build 0)  -->
<svg version="1.1" id="Ebene_1" xmlns="http://www.w3.org/2000/svg" xmlns:xlink="http://www.w3.org/1999/xlink" x="0px" y="0px"
	 viewBox="0 0 333.6 212.2" style="enable-background:new 0 0 333.6 212.2;" xml:space="preserve">
<style type="text/css">
	.st0{fill:#FFFFFF;}
</style>
<g>
	<g>
		<g>
			<g>
				<path class="st0" d="M40.1,45.7h11.2c1.9,0,3.5,0.2,4.8,0.6s2.3,1,3,1.6c0.7,0.7,1.3,1.4,1.5,2.3c0.3,0.9,0.4,1.7,0.4,2.6
					c0,0.8-0.1,1.5-0.4,2.1s-0.6,1.2-1,1.7s-0.8,0.9-1.3,1.2c-0.5,0.3-0.9,0.6-1.3,0.7c0.5,0.2,1.1,0.4,1.7,0.7
					c0.6,0.3,1.2,0.8,1.8,1.3c0.5,0.5,1,1.2,1.4,2s0.6,1.7,0.6,2.7c0,2.7-1,4.7-2.9,6s-4.7,1.9-8.4,1.9H40.1V45.7z M50.4,56.8
					c0.9,0,1.6-0.2,2.3-0.6c0.7-0.4,1-1.2,1-2.2c0-0.6-0.1-1.1-0.3-1.5c-0.2-0.4-0.4-0.7-0.8-0.9c-0.3-0.2-0.7-0.4-1.1-0.5
					S50.7,51,50.3,51h-3.2v5.9h3.3V56.8z M50.9,68c0.4,0,0.9,0,1.4-0.1s0.9-0.2,1.4-0.4c0.4-0.2,0.8-0.5,1-1c0.3-0.4,0.4-1,0.4-1.8
					c0-0.7-0.1-1.2-0.4-1.7c-0.3-0.4-0.6-0.7-1-1c-0.4-0.2-0.9-0.4-1.4-0.5s-0.9-0.1-1.4-0.1h-3.7v6.5L50.9,68L50.9,68z"/>
				<path class="st0" d="M70.3,45.7h19.8V52H77.6v4.2h10.3v5.9H77.6v4.7h13.3v6.3H70.3V45.7z"/>
				<path class="st0" d="M101.2,64.5c0.8,0.8,1.8,1.5,3,2.1s2.6,0.9,4.1,0.9c0.4,0,0.7,0,1.1-0.1c0.4-0.1,0.7-0.2,1-0.4
					c0.3-0.2,0.5-0.4,0.7-0.7c0.2-0.3,0.3-0.6,0.3-1.1c0-0.7-0.4-1.3-1.1-1.8c-0.7-0.5-1.8-0.9-3.2-1.4l-1.5-0.5
					c-0.9-0.3-1.7-0.6-2.6-1.1c-0.9-0.4-1.6-1-2.3-1.6s-1.2-1.3-1.7-2.2c-0.4-0.8-0.6-1.8-0.6-2.9c0-1.3,0.2-2.4,0.7-3.5
					s1.1-2,2-2.8s2-1.4,3.3-1.9s2.8-0.7,4.6-0.7c1.3,0,2.6,0.1,3.7,0.4c1.1,0.2,2.1,0.5,2.9,0.9c0.8,0.4,1.5,0.7,2.1,1.2
					c0.6,0.4,1,0.8,1.3,1.1l-3.7,4.7c-1-0.7-2-1.3-3-1.8s-2.1-0.7-3.2-0.7c-0.4,0-0.7,0-1.1,0.1c-0.4,0.1-0.7,0.2-1,0.4
					c-0.3,0.2-0.5,0.4-0.7,0.6c-0.2,0.3-0.3,0.6-0.3,1s0.1,0.8,0.3,1.1c0.2,0.3,0.5,0.6,0.8,0.8c0.4,0.2,0.8,0.4,1.3,0.6
					s1.1,0.4,1.6,0.6l1.3,0.4c0.9,0.3,1.9,0.7,2.8,1.1c1,0.4,1.8,0.9,2.6,1.6s1.4,1.5,1.9,2.5s0.7,2.2,0.7,3.7
					c0,1.3-0.3,2.4-0.9,3.5c-0.6,1.1-1.4,2-2.4,2.8s-2.2,1.4-3.5,1.8c-1.4,0.4-2.8,0.6-4.3,0.6c-2.7,0-5-0.4-6.9-1.1
					s-3.4-1.7-4.7-2.9L101.2,64.5z"/>
				<path class="st0" d="M129.4,64.5c0.8,0.8,1.8,1.5,3,2.1s2.6,0.9,4.1,0.9c0.4,0,0.7,0,1.1-0.1c0.4-0.1,0.7-0.2,1-0.4
					c0.3-0.2,0.5-0.4,0.7-0.7c0.2-0.3,0.3-0.6,0.3-1.1c0-0.7-0.4-1.3-1.1-1.8c-0.7-0.5-1.8-0.9-3.2-1.4l-1.5-0.5
					c-0.9-0.3-1.7-0.6-2.6-1.1c-0.9-0.4-1.6-1-2.3-1.6s-1.2-1.3-1.7-2.2c-0.4-0.8-0.6-1.8-0.6-2.9c0-1.3,0.2-2.4,0.7-3.5
					s1.1-2,2-2.8s2-1.4,3.3-1.9s2.8-0.7,4.6-0.7c1.3,0,2.6,0.1,3.7,0.4c1.1,0.2,2.1,0.5,2.9,0.9c0.8,0.4,1.5,0.7,2.1,1.2
					c0.6,0.4,1,0.8,1.3,1.1l-3.7,4.7c-1-0.7-2-1.3-3-1.8s-2.1-0.7-3.2-0.7c-0.4,0-0.7,0-1.1,0.1c-0.4,0.1-0.7,0.2-1,0.4
					c-0.3,0.2-0.5,0.4-0.7,0.6c-0.2,0.3-0.3,0.6-0.3,1s0.1,0.8,0.3,1.1c0.2,0.3,0.5,0.6,0.8,0.8c0.4,0.2,0.8,0.4,1.3,0.6
					s1.1,0.4,1.6,0.6l1.3,0.4c0.9,0.3,1.9,0.7,2.8,1.1c1,0.4,1.8,0.9,2.6,1.6s1.4,1.5,1.9,2.5s0.7,2.2,0.7,3.7
					c0,1.3-0.3,2.4-0.9,3.5c-0.6,1.1-1.4,2-2.4,2.8s-2.2,1.4-3.5,1.8c-1.4,0.4-2.8,0.6-4.3,0.6c-2.7,0-5-0.4-6.9-1.1
					s-3.4-1.7-4.7-2.9L129.4,64.5z"/>
				<path class="st0" d="M155.7,45.7h19.8V52H163v4.2h10.3v5.9H163v4.7h13.3v6.3h-20.6V45.7z"/>
				<path class="st0" d="M184.2,45.7h11.4c1.5,0,2.8,0.2,4,0.6s2.2,1,3.1,1.7c0.9,0.8,1.5,1.7,2,2.8c0.5,1.1,0.7,2.4,0.7,3.9
					c0,1.8-0.4,3.4-1.2,4.7c-0.8,1.3-1.9,2.4-3.2,3.2l5.9,10.5h-7.8l-4.7-9.4h-3v9.4h-7.1L184.2,45.7L184.2,45.7z M194.9,58.1
					c1,0,1.7-0.3,2.3-0.9c0.6-0.6,0.9-1.4,0.9-2.4s-0.3-1.9-0.9-2.5s-1.4-0.9-2.4-0.9h-3.5v6.7H194.9z"/>
				<path class="st0" d="M40.1,95.2h7.3v21.1h12.7v6.4h-20V95.2z"/>
				<path class="st0" d="M67.5,95.2h19.8v6.3H74.8v4.2h10.3v5.9H74.8v4.7h13.3v6.3H67.5C67.5,122.6,67.5,95.2,67.5,95.2z"/>
				<path class="st0" d="M98.4,113.9c0.8,0.8,1.8,1.5,3,2.1s2.6,0.9,4.1,0.9c0.4,0,0.7,0,1.1-0.1c0.4-0.1,0.7-0.2,1-0.4
					s0.5-0.4,0.7-0.7s0.3-0.6,0.3-1.1c0-0.7-0.4-1.3-1.1-1.8c-0.7-0.5-1.8-0.9-3.2-1.4l-1.5-0.5c-0.9-0.3-1.7-0.6-2.6-1.1
					c-0.9-0.4-1.6-1-2.3-1.6s-1.2-1.3-1.7-2.2c-0.4-0.8-0.6-1.8-0.6-2.9c0-1.3,0.2-2.4,0.7-3.5s1.1-2,2-2.8s2-1.4,3.3-1.9
					s2.8-0.7,4.6-0.7c1.3,0,2.6,0.1,3.7,0.4c1.1,0.2,2.1,0.5,2.9,0.9c0.8,0.4,1.5,0.7,2.1,1.2c0.6,0.4,1,0.8,1.3,1.1l-3.7,4.7
					c-1-0.7-2-1.3-3-1.8s-2.1-0.7-3.2-0.7c-0.4,0-0.7,0-1.1,0.1c-0.4,0.1-0.7,0.2-1,0.4c-0.3,0.2-0.5,0.4-0.7,0.6
					c-0.2,0.3-0.3,0.6-0.3,1s0.1,0.8,0.3,1.1c0.2,0.3,0.5,0.6,0.8,0.8c0.4,0.2,0.8,0.4,1.3,0.6s1.1,0.4,1.6,0.6l1.3,0.4
					c0.9,0.3,1.9,0.7,2.8,1.1c1,0.4,1.8,0.9,2.6,1.6s1.4,1.5,1.9,2.5s0.7,2.2,0.7,3.7c0,1.3-0.3,2.4-0.9,3.5c-0.6,1.1-1.4,2-2.4,2.8
					s-2.2,1.4-3.5,1.8c-1.4,0.4-2.8,0.6-4.3,0.6c-2.7,0-5-0.4-6.9-1.1c-1.9-0.7-3.4-1.7-4.7-2.9L98.4,113.9z"/>
				<path class="st0" d="M124.7,95.2h19.8v6.3H132v4.2h10.3v5.9H132v4.7h13.3v6.3h-20.6V95.2z"/>
				<path class="st0" d="M153.3,95.2h6.6l10.5,15.3V95.2h7.2v27.5h-6.2l-11-15.8v15.8h-7.2L153.3,95.2L153.3,95.2z"/>
				<path class="st0" d="M42.2,163.4c0.8,0.8,1.8,1.5,3,2.1s2.6,0.9,4.1,0.9c0.4,0,0.7,0,1.1-0.1s0.7-0.2,1-0.4s0.5-0.4,0.7-0.7
					s0.3-0.6,0.3-1.1c0-0.7-0.4-1.3-1.1-1.8s-1.8-0.9-3.2-1.4l-1.5-0.5c-0.9-0.3-1.7-0.6-2.6-1.1c-0.9-0.4-1.6-1-2.3-1.6
					c-0.7-0.6-1.2-1.3-1.7-2.2c-0.4-0.8-0.6-1.8-0.6-2.9c0-1.3,0.2-2.4,0.7-3.5s1.1-2,2-2.8s2-1.4,3.3-1.9s2.8-0.7,4.6-0.7
					c1.3,0,2.6,0.1,3.7,0.4c1.1,0.2,2.1,0.5,2.9,0.9s1.5,0.7,2.1,1.2c0.6,0.4,1,0.8,1.3,1.1l-3.7,4.7c-1-0.7-2-1.3-3-1.8
					s-2.1-0.7-3.2-0.7c-0.4,0-0.7,0-1.1,0.1s-0.7,0.2-1,0.4s-0.5,0.4-0.7,0.6c-0.2,0.3-0.3,0.6-0.3,1s0.1,0.8,0.3,1.1
					c0.2,0.3,0.5,0.6,0.8,0.8c0.4,0.2,0.8,0.4,1.3,0.6c0.5,0.2,1.1,0.4,1.6,0.6l1.3,0.4c0.9,0.3,1.9,0.7,2.8,1.1
					c1,0.4,1.8,0.9,2.6,1.6c0.8,0.7,1.4,1.5,1.9,2.5s0.7,2.2,0.7,3.7c0,1.3-0.3,2.4-0.9,3.5s-1.4,2-2.4,2.8s-2.2,1.4-3.5,1.8
					c-1.4,0.4-2.8,0.6-4.3,0.6c-2.7,0-5-0.4-6.9-1.1c-1.9-0.7-3.4-1.7-4.7-2.9L42.2,163.4z"/>
				<path class="st0" d="M94.2,167c-3.1,3.9-7.2,5.8-12.2,5.8c-2.1,0-4.1-0.4-5.8-1.1c-1.8-0.7-3.3-1.7-4.5-3
					c-1.3-1.3-2.2-2.8-2.9-4.5c-0.7-1.8-1.1-3.7-1.1-5.8s0.3-4,1-5.8s1.7-3.3,2.9-4.6c1.3-1.3,2.8-2.3,4.5-3
					c1.8-0.7,3.7-1.1,5.8-1.1c2.4,0,4.6,0.4,6.6,1.2s3.7,2.2,5.1,4.2l-4.8,4.9c-0.8-1-1.7-1.9-2.8-2.5s-2.3-0.9-3.7-0.9
					c-1.2,0-2.2,0.2-3.1,0.6c-0.9,0.4-1.7,0.9-2.3,1.6c-0.6,0.7-1.1,1.5-1.4,2.4c-0.3,0.9-0.5,1.9-0.5,3s0.2,2.1,0.5,3
					s0.8,1.7,1.5,2.4c0.6,0.7,1.4,1.2,2.3,1.6c0.9,0.4,1.9,0.6,3,0.6c1.6,0,2.9-0.3,3.9-0.8c1-0.6,2-1.4,2.9-2.7L94.2,167z"/>
				<path class="st0" d="M101,144.6h7.3v10.1h10.1v-10.1h7.3v27.5h-7.3v-10.8h-10.1v10.8H101V144.6z"/>
				<path class="st0" d="M134.8,144.6h11.4c1.5,0,2.8,0.2,4,0.6c1.2,0.4,2.2,1,3.1,1.7c0.9,0.8,1.5,1.7,2,2.8s0.7,2.4,0.7,3.9
					c0,1.8-0.4,3.4-1.2,4.7s-1.9,2.4-3.2,3.2l5.9,10.5h-7.8l-4.7-9.4h-3v9.4h-7.2V144.6z M145.4,157c1,0,1.7-0.3,2.3-0.9
					c0.6-0.6,0.9-1.4,0.9-2.4s-0.3-1.9-0.9-2.5c-0.6-0.6-1.4-0.9-2.4-0.9h-3.5v6.6L145.4,157L145.4,157z"/>
				<path class="st0" d="M164.8,144.6h19.8v6.3h-12.5v4.2h10.3v5.9h-10.3v4.7h13.3v6.3h-20.6V144.6z"/>
				<path class="st0" d="M193.3,144.6h7.3v27.5h-7.3L193.3,144.6L193.3,144.6z"/>
				<path class="st0" d="M209.7,144.6h11.1c1.9,0,3.5,0.2,4.8,0.6c1.3,0.4,2.3,1,3,1.6c0.7,0.7,1.3,1.4,1.5,2.3
					c0.3,0.9,0.4,1.7,0.4,2.6c0,0.8-0.1,1.5-0.4,2.1s-0.6,1.2-1,1.7s-0.8,0.9-1.3,1.2s-0.9,0.6-1.3,0.7c0.5,0.2,1.1,0.4,1.7,0.7
					s1.2,0.8,1.8,1.3c0.5,0.5,1,1.2,1.4,2s0.6,1.7,0.6,2.7c0,2.7-1,4.7-2.9,6s-4.7,1.9-8.4,1.9h-11.2v-27.4H209.7z M220,155.6
					c0.9,0,1.6-0.2,2.3-0.6c0.7-0.4,1-1.2,1-2.2c0-0.6-0.1-1.1-0.3-1.5c-0.2-0.4-0.4-0.7-0.8-0.9c-0.3-0.2-0.7-0.4-1.1-0.5
					s-0.8-0.1-1.2-0.1h-3.1v5.9L220,155.6L220,155.6z M220.5,166.9c0.4,0,0.9,0,1.4-0.1s0.9-0.2,1.4-0.4c0.4-0.2,0.8-0.5,1-1
					c0.3-0.4,0.4-1,0.4-1.8c0-0.7-0.1-1.2-0.4-1.7c-0.3-0.4-0.6-0.7-1-1c-0.4-0.2-0.9-0.4-1.4-0.5s-0.9-0.1-1.4-0.1h-3.7v6.5h3.7
					V166.9z"/>
				<path class="st0" d="M239.9,144.6h19.8v6.3h-12.5v4.2h10.3v5.9h-10.3v4.7h13.3v6.3h-20.6L239.9,144.6L239.9,144.6z"/>
				<path class="st0" d="M268.4,144.6h6.6l10.5,15.3v-15.3h7.2v27.5h-6.2l-11-15.8v15.8h-7.2v-27.5H268.4z"/>
			</g>
		</g>
		<polygon class="st0" points="0,0 0,12.9 320.7,12.9 320.7,199.3 12.9,199.3 12.9,45.7 0,45.7 0,212.2 333.6,212.2 333.6,0 		"/>
	</g>
</g>
</svg>
