<svg xmlns="http://www.w3.org/2000/svg" viewBox="0 0 183.41 207.9"><defs><style>.a{fill:#bb3c85;}.b{fill:#4b1a2f;}.c{fill:#9f2c73;}.d{fill:#d36ca6;}.e{fill:#fff;}.f{fill:#45132f;}.g{fill:#ffe004;}.h{fill:#fff3bc;}.i{fill:#d681b4;}.j{fill:#a59f85;}.k{fill:#8d876e;}.l{fill:#cfcfbd;}</style></defs><title>mimi</title><path class="a" d="M153.31,120.9c11.4,2.5,19.3,11.8,21.9,25.8l1.7,7.4-8.7,6.9-4-13.5c-1.7-6.2-5.3-11.7-11.7-11.7h-18.1V117Z"/><path class="b" d="M167.51,163.3l-4.6-15.4c-1.4-4.9-4.3-10.7-10.4-10.7H133V115.4l20.6,4.2c11.8,2.6,20.2,12.3,23,26.9l1.9,8.2Zm-31.7-28.9h16.7c6.1,0,10.8,4.5,13,12.7l3.5,11.5,6.4-5.1-1.5-6.6c-2.6-13.6-10-22.4-20.9-24.7l-17.2-3.5Z"/><path class="a" d="M136.21,38.1a11.68,11.68,0,0,0-12.9,10.3l-.7,8.2c-12-1-25.5-2-32.4-2s-20.3,1-32.2,2l-.9-8.2A11.72,11.72,0,0,0,33.81,51l1.1,10.9,4.6,55h-4.6c-6.5,0-10-5.5-11.7-11.7L20,93.8,9,94l3.2,12c2.7,14,10.5,23.3,21.9,25.8l6.8,1.4L42,146.5a27.59,27.59,0,0,0,24.1,25.1c-.1,5.1-.2,11.6,0,14.8-8.5.7-14.7,4.9-14.7,10.1,0,5.7,7.6,10.2,17.3,10.2,9.3,0,16.7-4.1,17.2-9.6.6-3.5.3-18.3.1-25.3h6.6c-.2,7-.5,21.8.1,25.3.5,5.5,7.9,9.6,17.2,9.6,9.7,0,17.3-4.5,17.3-10.2,0-5.2-6.2-9.3-14.7-10.1a142.8,142.8,0,0,0,0-14.7,27.57,27.57,0,0,0,25.6-25.3l7-83.1h.3l1.1-12.4A11.65,11.65,0,0,0,136.21,38.1Z"/><path class="c" d="M11.91,105.1c7.8,30.4,27.7,26.6,27.7,26.6-11.4-2.5-18.6-12.3-22.5-25.8l-3.4-13.3-5.5,1.3Z"/><path class="c" d="M57.41,195.8c0,5.3,7.5,10.1,12.5,10.7-.4,0-18.5-.4-18.5-10s14.7-10.1,14.7-10.1S57.41,190.5,57.41,195.8Z"/><path class="d" d="M111.51,170.8l-6.9,18.6a16.37,16.37,0,0,1,8-3Z"/><path class="d" d="M85.91,171.2h-5.5c0,1,.8,21.4,0,25.9-.5,4.9-6.5,8.7-14.5,9.4a25.28,25.28,0,0,0,2.8.1c9.3,0,16.7-4.1,17.2-9.6C86.71,192.5,86,172.2,85.91,171.2Z"/><path class="d" d="M145.61,53.2c.6.6-21.1,102-21.1,102s-.1,13.2-9.6,16.3l11.1-3.8s11-1.9,14.4-45.7C143.61,78,145.61,53.2,145.61,53.2Z"/><path class="e" d="M78.21,86.3a39.08,39.08,0,0,1,.3,4.9c0,11.9-5.9,21.5-13.2,21.5s-13.2-9.6-13.2-21.5a27.37,27.37,0,0,1,.4-5s4.2,5.5,12.9,5.5S78.21,86.3,78.21,86.3Z"/><path class="f" d="M65.31,113.9c-7.9,0-14.3-10.1-14.3-22.6a29.61,29.61,0,0,1,.4-5.2l2.2.3a38.87,38.87,0,0,0-.4,4.9c0,11.2,5.4,20.4,12.1,20.4s12.1-9.1,12.1-20.4a38.66,38.66,0,0,0-.3-4.8l2.2-.3a43.79,43.79,0,0,1,.4,5.1C79.71,103.7,73.31,113.9,65.31,113.9Z"/><path class="c" d="M52.81,86.3l1.2.6c.1-.4.1-.9.2-1.3,1.3-8.2,5.3-14.8,10.4-17.4-6.6.5-12,7.6-13.6,17A17.4,17.4,0,0,0,52.81,86.3Z"/><path class="d" d="M72.91,89.4c.4-.2,4.6-2.7,5-2.9a18.58,18.58,0,0,0,1.9-1.1c-1.6-9.5-7.1-16.6-13.7-17.1C71.31,70.8,72.91,88.9,72.91,89.4Z"/><path class="f" d="M67.71,80.1a14.67,14.67,0,0,1,2.9,4,19.93,19.93,0,0,1,1.5,4.9h-3a17,17,0,0,0,.1-4.5A14.34,14.34,0,0,0,67.71,80.1Z"/><path class="f" d="M62.21,80.1a14.67,14.67,0,0,1,2.9,4,19.93,19.93,0,0,1,1.5,4.9h-3a17,17,0,0,0,.1-4.5A14.34,14.34,0,0,0,62.21,80.1Z"/><path class="f" d="M56.71,80.1a14.67,14.67,0,0,1,2.9,4,19.93,19.93,0,0,1,1.5,4.9h-3a17,17,0,0,0,.1-4.5A14.34,14.34,0,0,0,56.71,80.1Z"/><path class="f" d="M83.51,83a18.5,18.5,0,0,1-3.4,4,22.35,22.35,0,0,1-4.4,2.9,24.19,24.19,0,0,1-20.8-.1,22.35,22.35,0,0,1-4.4-2.9,18.5,18.5,0,0,1-3.4-4,23.62,23.62,0,0,0,4.2,2.8,25.74,25.74,0,0,0,4.5,2,30.29,30.29,0,0,0,9.4,1.5,30.92,30.92,0,0,0,9.5-1.5,43.19,43.19,0,0,0,4.5-1.9A35.48,35.48,0,0,0,83.51,83Z"/><path class="e" d="M101.91,86.3a39.08,39.08,0,0,0-.3,4.9c0,11.9,5.9,21.5,13.2,21.5S128,103.1,128,91.2a27.37,27.37,0,0,0-.4-5s-4.2,5.5-12.9,5.5S101.91,86.3,101.91,86.3Z"/><path class="f" d="M114.81,113.9c-7.9,0-14.3-10.1-14.3-22.6a29.22,29.22,0,0,1,.4-5.1l2.2.3a38.66,38.66,0,0,0-.3,4.8c0,11.2,5.4,20.4,12.1,20.4S127,102.6,127,91.3a27,27,0,0,0-.4-4.9l2.2-.3a43.82,43.82,0,0,1,.4,5.2C129.21,103.7,122.71,113.9,114.81,113.9Z"/><circle class="f" cx="118.01" cy="102.5" r="7.6"/><circle class="e" cx="114.01" cy="98.2" r="3.8"/><circle class="f" cx="68.61" cy="102.5" r="7.6"/><circle class="e" cx="64.71" cy="98.2" r="3.8"/><path class="c" d="M102.31,86.3l1.2.6c.1-.4.1-.9.2-1.3,1.3-8.2,5.3-14.8,10.4-17.4-6.6.5-12,7.6-13.6,17A7.84,7.84,0,0,0,102.31,86.3Z"/><path class="d" d="M122.41,89.4c.4-.2,4.6-2.7,5-2.9a18.57,18.57,0,0,0,1.9-1.1c-1.6-9.5-7.1-16.6-13.7-17.1C120.71,70.8,122.31,88.9,122.41,89.4Z"/><path class="f" d="M113.41,80.1a11.83,11.83,0,0,0-1.4,4.5,13.54,13.54,0,0,0,.1,4.5h-3a19.93,19.93,0,0,1,1.5-4.9A12,12,0,0,1,113.41,80.1Z"/><path class="f" d="M118.91,80.1a11.83,11.83,0,0,0-1.4,4.5,13.54,13.54,0,0,0,.1,4.5h-3a19.93,19.93,0,0,1,1.5-4.9A12,12,0,0,1,118.91,80.1Z"/><path class="f" d="M124.41,80.1a11.83,11.83,0,0,0-1.4,4.5,13.54,13.54,0,0,0,.1,4.5h-3a19.93,19.93,0,0,1,1.5-4.9A13.52,13.52,0,0,1,124.41,80.1Z"/><path class="f" d="M133,83a18.5,18.5,0,0,1-3.4,4,22.35,22.35,0,0,1-4.4,2.9,24.19,24.19,0,0,1-20.8-.1,22.35,22.35,0,0,1-4.4-2.9,18.5,18.5,0,0,1-3.4-4,23.62,23.62,0,0,0,4.2,2.8,25.74,25.74,0,0,0,4.5,2,30.29,30.29,0,0,0,9.4,1.5,30.92,30.92,0,0,0,9.5-1.5,43.19,43.19,0,0,0,4.5-1.9C130.21,84.9,131.61,84,133,83Z"/><circle class="d" cx="56.91" cy="122.9" r="6.1"/><circle class="d" cx="123.01" cy="122.9" r="6.1"/><path class="c" d="M43.61,103.5l.8-47.7s-1.8-16.9,5.9-17.4c0,0-17.6-.2-16.6,12.5s6,67.3,6,67.3l1.4.1Z"/><polygon class="c" points="84.11 64.4 65.41 56.8 80.41 55.7 81.81 60 84.11 64.4"/><path class="d" d="M39,56.4l-.6-5.3a6.95,6.95,0,0,1,13.8-1.6l.6,5.6"/><path class="b" d="M39.31,59.9c-.3-1.6-.6-3.3-.8-4.9l-.4-2.5-.2-1.2a5.7,5.7,0,0,1-.1-1.3,7.78,7.78,0,0,1,1.9-5,7.55,7.55,0,0,1,10.1-.9,7.26,7.26,0,0,1,2.8,4.5c.1.9.1,1.7.2,2.5l.1,2.5c.1,1.7.1,3.3.2,5-.3-1.6-.6-3.3-.8-4.9l-.4-2.5a17.16,17.16,0,0,0-.4-2.4,6.76,6.76,0,0,0-2.6-3.6,6.4,6.4,0,0,0-8.1.7,5.85,5.85,0,0,0-1.9,4,4.82,4.82,0,0,0,0,1.2l.1,1.2.1,2.5C39.21,56.6,39.31,58.2,39.31,59.9Z"/><path class="b" d="M145.11,41.5a13.08,13.08,0,0,0-23.2,6.8l-.7,6.8c-11.6-1-24.4-1.9-31.1-1.9s-19.4.9-31,1.9l-.7-6.8a13.17,13.17,0,0,0-4.8-8.8A12.89,12.89,0,0,0,44,36.7a13.17,13.17,0,0,0-8.8,4.8,12.89,12.89,0,0,0-2.8,9.6L33.51,62h0L38,115.5h-3.1c-6.1,0-9-5.8-10.4-10.7L21,92.4l-13.8.2,3.7,13.7c2.8,14.5,11.2,24.3,23,26.8l5.7,1.2,1,12.2a28.57,28.57,0,0,0,9.3,18.9,30,30,0,0,0,14.8,7.3c-.1,4.3-.1,9.2,0,12.4-8.5,1.1-14.6,5.7-14.6,11.3,0,3.4,2.2,6.5,6.1,8.6a26.34,26.34,0,0,0,12.6,2.9c10,0,18-4.6,18.6-10.7.6-3.5.4-16.7.2-24.1h3.7c-.2,7.4-.4,20.6.2,24.1.6,6.1,8.6,10.7,18.6,10.7a26.34,26.34,0,0,0,12.6-2.9c3.9-2.2,6.1-5.2,6.1-8.6,0-5.6-6.1-10.2-14.6-11.3.2-3.2.1-7.9,0-12.2a29.16,29.16,0,0,0,25.6-26.4l7-83.2,1.3-12.2A14.11,14.11,0,0,0,145.11,41.5Zm-110,9.3a10.51,10.51,0,0,1,2.2-7.6,10,10,0,0,1,6.9-3.8,10.51,10.51,0,0,1,7.6,2.2,10,10,0,0,1,3.8,6.9l1,9.7h0S83.41,56,90.21,56c7.1,0,21.2,1.1,33.4,2.1l.9-9.7A10.31,10.31,0,1,1,145,50.7l-8.1,95.6a26,26,0,0,1-8.4,17.1,26.31,26.31,0,0,1-14.5,6.7l-2.7.4s.2,11.8,0,14.7a23.08,23.08,0,0,0-2.8,1,12.84,12.84,0,0,0-4,2.9,11.83,11.83,0,0,1,4.5-1.4,16.2,16.2,0,0,1,2.2-.1,14.92,14.92,0,0,1,2.1.2h.2c7.2.9,12.5,4.4,12.5,8.6,0,4.9-7.1,8.8-15.9,8.8-8.5,0-15.5-3.7-15.9-8.4-.6-3-.3-16.4-.1-23.7v-2.8h-9.4v2.6c.2,7.4.4,20.7-.1,23.7-.4,4.7-7.4,8.4-15.9,8.4-8.8,0-15.9-3.9-15.9-8.8,0-4.2,5.4-7.7,12.5-8.6h.2c.7-.1,1.4-.1,2.1-.2a16.2,16.2,0,0,1,2.2.1,14.69,14.69,0,0,1,4.5,1.4,14.67,14.67,0,0,0-4-2.9,13.32,13.32,0,0,0-2.8-1c-.2-3,0-14.9,0-14.9l-2.5-.3a26.3,26.3,0,0,1-21.4-23.6l-1.2-14.3-7.8-1.6c-10.9-2.1-18.3-10.9-20.9-24.4l-3.3-12.3,8.2-.1,3.5,12.3c2.3,8.2,6.9,12.7,13,12.7h6.1Z"/><path class="d" d="M141.11,56.4l.6-5.3a7,7,0,0,0-6.1-7.7,7,7,0,0,0-7.7,6.1l-.6,5.6"/><path class="b" d="M140.81,59.9c0-1.7.1-3.3.2-5l.1-2.5.1-1.2V50a7.48,7.48,0,0,0-1.9-4,6.43,6.43,0,0,0-3.9-1.8,6.5,6.5,0,0,0-6.8,4.7,17.16,17.16,0,0,0-.4,2.4l-.4,2.5c-.2,1.6-.5,3.3-.8,4.9,0-1.7.1-3.3.2-5l.1-2.5c.1-.8.1-1.6.2-2.5a7,7,0,0,1,2.8-4.5,7.58,7.58,0,0,1,5.2-1.5,7.89,7.89,0,0,1,4.9,2.4,6.69,6.69,0,0,1,1.9,5c0,.4-.1.9-.1,1.3l-.2,1.2-.4,2.5C141.41,56.6,141.11,58.3,140.81,59.9Z"/><path class="g" d="M92.41,25.2a30,30,0,0,1,2.1,7,46.71,46.71,0,0,1,.7,9.4,30.92,30.92,0,0,1,2.7,8.5c1,5.4.1,8,.1,8l.5,2.8s-1.7,3.1-8.3,3.1-8.3-3.1-8.3-3.1-1.3-1.5-.5-5.9,2.5-6.2,2.5-6.2.2-7,1-12.8A48.28,48.28,0,0,1,88,24.9C89,22.7,91.21,22.6,92.41,25.2Z"/><path class="h" d="M82.31,61.4s8.3.6,10.3-4l5.8,3C98.31,60.3,93.21,68.9,82.31,61.4Z"/><path class="h" d="M92.61,56.8s2.4-2.4,1.7-13.9c0,0,4.4,5,3.7,14.4Z"/><path class="h" d="M91,40.1s2-9.3,0-15.3a11.39,11.39,0,0,1,3.4,6.9,59.52,59.52,0,0,1,0,10Z"/><path class="b" d="M99.41,58.3a22.59,22.59,0,0,0-.2-8.3,31.43,31.43,0,0,0-2.7-8.6,57.07,57.07,0,0,0-.7-9.3,29.67,29.67,0,0,0-2.2-7.4A4.11,4.11,0,0,0,90,22a4,4,0,0,0-3.4,2.7,52.94,52.94,0,0,0-3.2,11.4c-.7,5-.9,10.8-1,12.5a15.79,15.79,0,0,0-2.5,6.4c-.8,4.4.3,6.3.7,6.9s2.7,3.7,9.5,3.7c7.3,0,9.3-3.4,9.6-3.8l.2-.4Zm-9.2,4.5c-5.6,0-7.1-2.3-7.1-2.4l-.2-.2c-.1-.2-.8-1.5-.2-4.7a14.5,14.5,0,0,1,1.7-4.8,17.22,17.22,0,0,0,3.7-2.2,16.43,16.43,0,0,0,2.9-3,12.08,12.08,0,0,1-5.7,1.9,105.26,105.26,0,0,1,.9-10.9,49.82,49.82,0,0,1,3-10.7c.3-.7.7-1,.9-1s.7.3,1,1.1V26a25.74,25.74,0,0,1,2,6.7,45.89,45.89,0,0,1,.7,8,12.81,12.81,0,0,1-4.4-1.8,15.31,15.31,0,0,0,4.8,4.3,28.87,28.87,0,0,1,2.2,7.5,26.6,26.6,0,0,1,.4,6.3,14.61,14.61,0,0,1-3.6-.3,12.81,12.81,0,0,1-4.4-1.8,13.34,13.34,0,0,0,3.6,3.5,18.79,18.79,0,0,0,4.5,2.2l.1.3C96.41,61.3,94.51,62.8,90.21,62.8Z"/><path class="e" d="M89.11,128.9a.75.75,0,0,0,1.3,0l1.6-2.8h-4.6Z"/><path class="e" d="M94.71,128.5l1.6,2.8a.75.75,0,0,0,1.3,0l1.6-2.8Z"/><path class="e" d="M81.91,131.3a.75.75,0,0,0,1.3,0l1.6-2.8h-4.6Z"/><path class="f" d="M101.61,126.3a9.28,9.28,0,0,1-4.7,1.7,6.13,6.13,0,0,1-4.3-1.7,5.83,5.83,0,0,1-1.7-4.1v-5.8h-2.2v5.8a5.83,5.83,0,0,1-1.7,4.1,6.13,6.13,0,0,1-4.3,1.7,8.31,8.31,0,0,1-4.7-1.6,8.5,8.5,0,0,1-3.2-4.2,7.77,7.77,0,0,0,2.5,5,9.09,9.09,0,0,0,5.3,2.5,7.38,7.38,0,0,0,5.8-1.8,7.46,7.46,0,0,0,1.4-1.7,11.51,11.51,0,0,0,1.4,1.7,7.85,7.85,0,0,0,5.8,1.9,8.81,8.81,0,0,0,5.2-2.5,9,9,0,0,0,2.6-5A10.34,10.34,0,0,1,101.61,126.3Z"/><circle class="d" cx="89.81" cy="110.8" r="6.1"/><circle class="i" cx="89.81" cy="108.6" r="1.9"/><path class="a" d="M19.51,84.7l1.6-13a3.42,3.42,0,1,0-6.8-.8l-1.6,12.3-4.8-9.8a3.47,3.47,0,0,0-4.6-1.6,3.47,3.47,0,0,0-1.6,4.6l4.7,9.7c-1.7,1.3-2.7,2.9-2.6,4.6.2,3.4,20,2,19.8-1.4C23.51,87.3,21.91,85.6,19.51,84.7Z"/><path class="d" d="M4.71,73.4l8.5,11.9L8,73.4a3.47,3.47,0,0,0-4.6-1.6c-.1,0-.1.1-.2.1A3.61,3.61,0,0,1,4.71,73.4Z"/><path class="d" d="M19.51,84.7l1.6-13a3.4,3.4,0,0,0-3-3.8,3.78,3.78,0,0,0-2.1.4,3.62,3.62,0,0,1,1.8,3.4L18,85.6C20.41,86.5,21.91,85.6,19.51,84.7Z"/><path class="b" d="M11.41,97.5c-2.3-.2-2.8.4-3.6-2.3-.9-3.1-3-9.5-3-9.5L.51,77a4.71,4.71,0,0,1,2.2-6.4,4.71,4.71,0,0,1,6.4,2.2l2.7,5.6,1-7.8a4.94,4.94,0,0,1,1.8-3.2,5.09,5.09,0,0,1,3.6-1,4.94,4.94,0,0,1,3.2,1.8,5.09,5.09,0,0,1,1,3.6l-1.5,12c2.4,1.2-.5,5.9,0,8.6.1.3-3.4-1.3-3.4-1.3a5.43,5.43,0,0,0,1.5-.9c.8-.6,1.8-3.5-.2-4.3l-1-.4,1.9-14a2,2,0,0,0-.4-1.5,2.19,2.19,0,0,0-1.4-.8,2,2,0,0,0-1.5.4,2.19,2.19,0,0,0-.8,1.4l-2.5,14.3L6.71,74a2.24,2.24,0,0,0-1.9-1.2,2.92,2.92,0,0,0-.9.2,2.13,2.13,0,0,0-1,2.8l5.2,10.7-.9.7c-.8.6.4,6.9,3.5,7.4Z"/><path class="a" d="M19,84.9l-7.7,5.8a3,3,0,0,0-.2,4.2,3,3,0,0,0,4.1.9l7.7-5.8a3,3,0,0,0,.2-4.2A3,3,0,0,0,19,84.9Z"/><path class="d" d="M23.11,85.9A3,3,0,0,0,19,85l-.9.7a3.37,3.37,0,0,1,2.2,1.4,3,3,0,0,1-.2,4.2l-6.8,5.2a2.56,2.56,0,0,0,1.9-.4l7.7-5.8A3.24,3.24,0,0,0,23.11,85.9Z"/><path class="b" d="M23.61,90.9l-7.7,5.8a4.12,4.12,0,0,1-5.7-1.1,4.28,4.28,0,0,1,.4-5.8l7.7-5.8A4.12,4.12,0,0,1,24,85.1C25.51,87.1,25.31,89.7,23.61,90.9ZM12,91.7a1.86,1.86,0,0,0,0,2.6,1.9,1.9,0,0,0,2.5.7l7.7-5.8a1.86,1.86,0,0,0,0-2.6,1.9,1.9,0,0,0-2.5-.7Z"/><path class="a" d="M16,90.2,7,86.6c-1.4-.6-3,.3-3.7,2a3,3,0,0,0,1.3,4l9,3.6c1.4.6,3-.3,3.7-2S17.41,90.7,16,90.2Z"/><path class="b" d="M13.21,97.2l-9-3.6a4.13,4.13,0,0,1-2-5.4,4.14,4.14,0,0,1,5.2-2.6l9,3.6a4.13,4.13,0,0,1,2,5.4A4.23,4.23,0,0,1,13.21,97.2Zm-6.6-9.6A1.87,1.87,0,0,0,4.41,89a1.88,1.88,0,0,0,.7,2.5l9,3.6a1.87,1.87,0,0,0,2.2-1.4,1.88,1.88,0,0,0-.7-2.5Z"/><path class="j" d="M178.21,158.8l-42.9,11.4a4.43,4.43,0,0,1-5.6-3.8l-3.9-30.3a6.1,6.1,0,0,1,4.8-6.9l47.3-7.3c2.3-.4,4.1,1.7,4.1,4.6v26.6C182,155.7,180.31,158.2,178.21,158.8Z"/><path class="k" d="M177.91,122l-8.5,1.3a38.61,38.61,0,0,1,.9,8.4,38,38,0,0,1-25.4,36l33.3-8.9a5.86,5.86,0,0,0,3.8-5.6V126.6C182,123.7,180.11,121.6,177.91,122Z"/><path class="l" d="M134.11,166.4l-3.9-30.3a6.1,6.1,0,0,1,4.8-6.9l44.9-6.9a3.44,3.44,0,0,0-2-.4l-47.3,7.3a6.18,6.18,0,0,0-4.8,6.9l3.9,30.3a4.43,4.43,0,0,0,5.6,3.8l1.2-.3A4.35,4.35,0,0,1,134.11,166.4Z"/><path class="b" d="M134.11,171.8a5.5,5.5,0,0,1-3.2-1,5.62,5.62,0,0,1-2.5-4.2l-3.9-30.3c-.5-4.1,2.1-7.9,5.9-8.4l47.3-7.3a4.67,4.67,0,0,1,3.7,1.1,6.32,6.32,0,0,1,2,4.9v26.6c0,3.1-2.1,6.2-4.8,6.9l-42.9,11.4A5,5,0,0,1,134.11,171.8Zm44.3-48.5h-.3l-47.3,7.3a4.78,4.78,0,0,0-3.6,5.4l3.9,30.3a3.17,3.17,0,0,0,1.3,2.3,3.26,3.26,0,0,0,2.6.4l42.9-11.4a4.46,4.46,0,0,0,2.8-4.2V126.8a3.61,3.61,0,0,0-1.1-2.8A1.31,1.31,0,0,0,178.41,123.3Z"/><polygon class="b" points="76.21 170.6 84.71 170.5 84.71 173.1 76.21 170.6"/><polygon class="b" points="102.61 170.6 94.11 170.5 94.11 173.1 102.61 170.6"/><path class="a" d="M177.51,159.9l-2.7-11c-.4-1.7-2.4-2.7-4.4-2.2a3.56,3.56,0,0,0-2.9,4l2.7,11c.4,1.7,2.4,2.7,4.4,2.2S178,161.6,177.51,159.9Z"/><path class="a" d="M170.21,161.7l-2.7-11c-.4-1.7-2.4-2.7-4.4-2.2a3.56,3.56,0,0,0-2.9,4l2.7,11c.4,1.7,2.4,2.7,4.4,2.2S170.71,163.4,170.21,161.7Z"/><path class="a" d="M162.91,163.5l-2.7-11c-.4-1.7-2.4-2.7-4.4-2.2a3.56,3.56,0,0,0-2.9,4l2.7,11c.4,1.7,2.4,2.7,4.4,2.2A3.56,3.56,0,0,0,162.91,163.5Z"/><path class="c" d="M173.81,160.6a3.56,3.56,0,0,0,2.9-4l.5,2a3.56,3.56,0,0,1-2.9,4c-2,.5-4-.5-4.4-2.2l-.5-2C169.81,160.1,171.81,161.1,173.81,160.6Z"/><path class="b" d="M169,162l-2.7-11c-.6-2.4,1.1-4.9,3.9-5.6a4.78,4.78,0,0,1,6,3.1l2.7,11c.6,2.4-1.1,4.9-3.9,5.6S169.61,164.4,169,162Zm4.5-12.8c-.2-1-1.5-1.5-2.8-1.2s-2.2,1.4-1.9,2.4l2.7,11c.2,1,1.5,1.5,2.8,1.2s2.2-1.4,1.9-2.4Z"/><path class="c" d="M166.51,162.4a3.56,3.56,0,0,0,2.9-4l.5,2a3.56,3.56,0,0,1-2.9,4c-2,.5-4-.5-4.4-2.2l-.5-2C162.51,161.9,164.51,162.9,166.51,162.4Z"/><path class="b" d="M161.61,163.8l-2.7-11c-.6-2.4,1.1-4.9,3.9-5.6a4.78,4.78,0,0,1,6,3.1l2.7,11c.6,2.4-1.1,4.9-3.9,5.6A4.78,4.78,0,0,1,161.61,163.8Zm4.6-12.8c-.2-1-1.5-1.5-2.8-1.2s-2.2,1.4-1.9,2.4l2.7,11c.2,1,1.5,1.5,2.8,1.2s2.2-1.4,1.9-2.4Z"/><path class="c" d="M159.21,164.2a3.56,3.56,0,0,0,2.9-4l.5,2a3.56,3.56,0,0,1-2.9,4c-2,.5-4-.5-4.4-2.2l-.5-2C155.21,163.7,157.21,164.7,159.21,164.2Z"/><path class="b" d="M154.31,165.7l-2.7-11c-.6-2.4,1.1-4.9,3.9-5.6a4.78,4.78,0,0,1,6,3.1l2.7,11c.6,2.4-1.1,4.9-3.9,5.6A4.78,4.78,0,0,1,154.31,165.7Zm4.6-12.9c-.2-1-1.5-1.5-2.8-1.2s-2.2,1.4-1.9,2.4l2.7,11c.2,1,1.5,1.5,2.8,1.2s2.2-1.4,1.9-2.4Z"/><circle class="b" cx="136.51" cy="136.6" r="1.6"/><polygon class="h" points="90.91 0 101.31 14.1 102.51 31.8 91.91 17.5 90.91 0"/><polygon class="g" points="96.61 15.9 90.81 0 92.01 17.6 96.61 15.9"/><polygon class="g" points="96.71 15.9 102.51 31.8 101.31 14.2 96.71 15.9"/><polygon class="h" points="87.21 19.4 94.91 11.3 106.21 12.5 98.31 20.6 87.21 19.4"/></svg>