<?xml version="1.0" encoding="utf-8"?>
<!-- Generator: Adobe Illustrator 24.1.0, SVG Export Plug-In . SVG Version: 6.00 Build 0)  -->
<svg version="1.1" id="Ebene_1" xmlns="http://www.w3.org/2000/svg" xmlns:xlink="http://www.w3.org/1999/xlink" x="0px" y="0px"
	 viewBox="0 0 444.4 470.2" style="enable-background:new 0 0 444.4 470.2;" xml:space="preserve">
<style type="text/css">
	.st0{fill:#5BAF9F;}
	.st1{fill:#BB3C85;}
	.st2{fill:#4B1A2F;}
	.st3{fill:#9F2C73;}
	.st4{fill:#D36CA6;}
	.st5{fill:#FFFFFF;}
	.st6{fill:#45132F;}
	.st7{fill:#FFE004;}
	.st8{fill:#FFF3BC;}
	.st9{fill:#D681B4;}
	.st10{fill:#A59F85;}
	.st11{fill:#8D876E;}
	.st12{fill:#CFCFBD;}
</style>
<ellipse class="st0" cx="218.6" cy="441" rx="114.8" ry="22.9"/>
<g>
	<g>
		<g>
			<path class="st1" d="M352.3,264.7c23.9,5.2,40.5,24.8,46,54.2l3.6,15.5l-18.3,14.5l-8.4-28.4c-3.6-13-11.1-24.6-24.6-24.6h-38
				v-39.5L352.3,264.7z"/>
			<path class="st2" d="M382.1,353.7l-9.7-32.3c-2.9-10.3-9-22.5-21.8-22.5h-40.9v-45.8l43.3,8.8c24.8,5.5,42.4,25.8,48.3,56.5
				l4,17.2L382.1,353.7z M315.5,293h35.1c12.8,0,22.7,9.4,27.3,26.7l7.3,24.1l13.4-10.7l-3.1-13.9c-5.5-28.6-21-47-43.9-51.9
				l-36.1-7.4V293z"/>
		</g>
		<g>
			<path class="st1" d="M316.3,90.8c-13.4-1.5-25.6,8.2-27.1,21.6l-1.5,17.2c-25.2-2.1-53.6-4.2-68-4.2s-42.6,2.1-67.6,4.2
				l-1.9-17.2c-1.5-13.4-13.7-23.3-27.1-21.6c-13.7,1.5-23.5,13.7-21.8,27.1l2.3,22.9l9.7,115.5h-9.7c-13.7,0-21-11.5-24.6-24.6
				l-6.7-23.9l-23.1,0.4l6.7,25.2c5.7,29.4,22.1,48.9,46,54.2l14.3,2.9l2.3,27.9c2.3,27.7,23.7,49.4,50.6,52.7
				c-0.2,10.7-0.4,24.4,0,31.1c-17.8,1.5-30.9,10.3-30.9,21.2c0,12,16,21.4,36.3,21.4c19.5,0,35.1-8.6,36.1-20.2
				c1.3-7.4,0.6-38.4,0.2-53.1h13.9c-0.4,14.7-1.1,45.8,0.2,53.1c1.1,11.6,16.6,20.2,36.1,20.2c20.4,0,36.3-9.5,36.3-21.4
				c0-10.9-13-19.5-30.9-21.2c0.6-6.7,0.4-20.2,0-30.9c28.4-1.9,51.5-24.4,53.8-53.1L335,143.7h0.6l2.3-26
				C339.4,104.4,329.8,92.3,316.3,90.8z"/>
			<path class="st3" d="M55.3,231.5c16.4,63.8,58.2,55.9,58.2,55.9c-23.9-5.2-39.1-25.8-47.2-54.2l-7.1-27.9L47.5,208L55.3,231.5z"
				/>
			<path class="st3" d="M150.9,422c0,11.1,15.8,21.2,26.2,22.5c-0.8,0-38.9-0.8-38.9-21s30.9-21.2,30.9-21.2S150.9,410.8,150.9,422z
				"/>
			<path class="st4" d="M264.5,369.5L250,408.5c0,0,6.5-5.2,16.8-6.3L264.5,369.5z"/>
			<path class="st4" d="M210.7,370.3h-11.5c0,2.1,1.7,44.9,0,54.4c-1.1,10.3-13.7,18.3-30.5,19.7c1.9,0.2,3.8,0.2,5.9,0.2
				c19.5,0,35.1-8.6,36.1-20.2C212.4,415,210.9,372.4,210.7,370.3z"/>
		</g>
		<path class="st4" d="M336.1,122.5c1.3,1.3-44.3,214.2-44.3,214.2s-0.2,27.7-20.2,34.2l23.3-8c0,0,23.1-4,30.2-96
			C331.9,174.6,336.1,122.5,336.1,122.5z"/>
		<g>
			<path class="st5" d="M194.5,192c0.4,3.4,0.6,6.7,0.6,10.3c0,25-12.4,45.2-27.7,45.2s-27.7-20.2-27.7-45.2c0-3.6,0.2-7.1,0.8-10.5
				c0,0,8.8,11.6,27.1,11.6S194.5,192,194.5,192z"/>
			<g>
				<path class="st6" d="M167.5,250c-16.6,0-30-21.2-30-47.5c0-3.8,0.2-7.4,0.8-10.9l4.6,0.6c-0.4,3.4-0.8,6.7-0.8,10.3
					c0,23.5,11.3,42.8,25.4,42.8s25.4-19.1,25.4-42.8c0-3.4-0.2-6.7-0.6-10.1l4.6-0.6c0.4,3.6,0.8,7.1,0.8,10.7
					C197.7,228.5,184.3,250,167.5,250z"/>
			</g>
			<g>
				<path class="st3" d="M141.2,192c0.8,0.4,1.7,0.8,2.5,1.3c0.2-0.8,0.2-1.9,0.4-2.7c2.7-17.2,11.1-31.1,21.8-36.5
					c-13.9,1.1-25.2,16-28.6,35.7C138.7,190.5,139.9,191.4,141.2,192z"/>
			</g>
			<g>
				<path class="st4" d="M183.4,198.5c0.8-0.4,9.7-5.7,10.5-6.1c1.3-0.6,2.7-1.5,4-2.3c-3.4-19.9-14.9-34.9-28.8-35.9
					C180.1,159.5,183.4,197.5,183.4,198.5z"/>
			</g>
			<path class="st6" d="M172.5,179c2.5,2.3,4.4,5.2,6.1,8.4c1.5,3.1,2.5,6.7,3.2,10.3h-6.3c0.4-3.1,0.6-6.3,0.2-9.4
				C175,185.1,174.2,181.9,172.5,179z"/>
			<path class="st6" d="M160.9,179c2.5,2.3,4.4,5.2,6.1,8.4c1.5,3.1,2.5,6.7,3.1,10.3h-6.3c0.4-3.1,0.6-6.3,0.2-9.4
				C163.5,185.1,162.6,181.9,160.9,179z"/>
			<path class="st6" d="M149.4,179c2.5,2.3,4.4,5.2,6.1,8.4c1.5,3.1,2.5,6.7,3.1,10.3h-6.3c0.4-3.1,0.6-6.3,0.2-9.4
				C151.9,185.1,151.1,181.9,149.4,179z"/>
			<path class="st6" d="M205.7,185.1c-1.9,3.1-4.4,5.9-7.1,8.4c-2.7,2.3-5.9,4.4-9.2,6.1c-6.7,3.4-14.3,4.8-21.8,4.8
				s-15.1-1.7-21.8-5c-3.4-1.7-6.5-3.8-9.2-6.1c-2.7-2.5-5.2-5.2-7.1-8.4c2.7,2.3,5.7,4.2,8.8,5.9c3.1,1.7,6.1,3.2,9.4,4.2
				c6.5,2.1,13,3.1,19.7,3.1c6.7,0,13.4-1.1,19.9-3.1c3.1-1.1,6.3-2.5,9.4-4C200,189.1,202.9,187.2,205.7,185.1z"/>
		</g>
		<g>
			<path class="st5" d="M244.3,192c-0.4,3.4-0.6,6.7-0.6,10.3c0,25,12.4,45.2,27.7,45.2c15.3,0,27.7-20.2,27.7-45.2
				c0-3.6-0.2-7.1-0.8-10.5c0,0-8.8,11.6-27.1,11.6S244.3,192,244.3,192z"/>
			<g>
				<path class="st6" d="M271.4,250c-16.6,0-30-21.2-30-47.5c0-3.6,0.2-7.1,0.8-10.7l4.6,0.6c-0.4,3.4-0.6,6.7-0.6,10.1
					c0,23.5,11.3,42.8,25.4,42.8c14.1,0,25.4-19.1,25.4-42.8c0-3.4-0.2-6.9-0.8-10.3l4.6-0.6c0.4,3.6,0.8,7.1,0.8,10.9
					C301.6,228.5,288,250,271.4,250z"/>
			</g>
			<circle class="st6" cx="278.1" cy="226" r="16"/>
			<circle class="st5" cx="269.7" cy="217" r="8"/>
			<circle class="st6" cx="174.4" cy="226" r="16"/>
			<circle class="st5" cx="166.2" cy="217" r="8"/>
			<g>
				<path class="st3" d="M245.2,192c0.8,0.4,1.7,0.8,2.5,1.3c0.2-0.8,0.2-1.9,0.4-2.7c2.7-17.2,11.1-31.1,21.8-36.5
					c-13.9,1.1-25.2,16-28.6,35.7C242.4,190.5,243.7,191.4,245.2,192z"/>
			</g>
			<g>
				<path class="st4" d="M287.4,198.5c0.8-0.4,9.7-5.7,10.5-6.1c1.3-0.6,2.7-1.5,4-2.3c-3.4-19.9-14.9-34.9-28.8-35.9
					C283.8,159.5,287.2,197.5,287.4,198.5z"/>
			</g>
			<path class="st6" d="M268.5,179c-1.7,2.9-2.5,6.1-2.9,9.4c-0.4,3.2-0.4,6.5,0.2,9.5h-6.3c0.6-3.6,1.7-7.1,3.1-10.3
				C264.1,184.2,265.9,181.3,268.5,179z"/>
			<path class="st6" d="M280,179c-1.7,2.9-2.5,6.1-2.9,9.4c-0.4,3.2-0.4,6.5,0.2,9.5H271c0.6-3.6,1.7-7.1,3.2-10.3
				C275.6,184.2,277.5,181.3,280,179z"/>
			<path class="st6" d="M291.6,179c-1.7,2.9-2.5,6.1-2.9,9.4c-0.4,3.2-0.4,6.5,0.2,9.5h-6.3c0.6-3.6,1.7-7.1,3.1-10.3
				C287.2,184.2,289.3,181.3,291.6,179z"/>
			<path class="st6" d="M309.6,185.1c-1.9,3.1-4.4,5.9-7.1,8.4c-2.7,2.3-5.9,4.4-9.2,6.1c-6.7,3.4-14.3,4.8-21.8,4.8
				c-7.6,0-15.1-1.7-21.8-5c-3.4-1.7-6.5-3.8-9.2-6.1c-2.7-2.5-5.2-5.2-7.1-8.4c2.7,2.3,5.7,4.2,8.8,5.9c3.2,1.7,6.1,3.2,9.4,4.2
				c6.5,2.1,13,3.1,19.7,3.1s13.4-1.1,20-3.1c3.1-1.1,6.3-2.5,9.4-4C303.7,189.1,306.7,187.2,309.6,185.1z"/>
		</g>
		<circle class="st4" cx="149.8" cy="268.9" r="12.8"/>
		<circle class="st4" cx="288.6" cy="268.9" r="12.8"/>
		<path class="st3" d="M121.9,228.1l1.7-100.2c0,0-3.8-35.5,12.4-36.5c0,0-37-0.4-34.9,26.2S113.7,259,113.7,259l2.9,0.2
			L121.9,228.1z"/>
		<polygon class="st3" points="206.9,146 167.7,130.1 199.2,127.7 202.1,136.8 		"/>
		<g>
			<path class="st4" d="M112.2,129.2l-1.3-11.1c-0.8-8,4.8-15.1,12.8-16.2c8-0.8,15.1,4.8,16.2,12.8l1.3,11.8"/>
			<path class="st2" d="M112.9,136.6c-0.6-3.4-1.3-6.9-1.7-10.3l-0.8-5.2l-0.4-2.5c-0.2-0.8-0.2-1.9-0.2-2.7c0-3.8,1.5-7.6,4-10.5
				c2.5-2.9,6.3-4.6,10.3-5c3.8-0.4,8,0.8,10.9,3.1c3.2,2.3,5.2,5.9,5.9,9.5c0.2,1.9,0.2,3.6,0.4,5.2l0.2,5.2
				c0.2,3.6,0.2,6.9,0.4,10.5c-0.6-3.4-1.3-6.9-1.7-10.3l-0.8-5.2c-0.2-1.7-0.4-3.6-0.8-5c-0.8-3.2-2.9-5.7-5.5-7.6
				c-2.5-1.7-5.7-2.7-8.8-2.3c-3.2,0.2-6.1,1.7-8.2,3.8c-2.3,2.1-3.8,5-4,8.4c0,0.8-0.2,1.7,0,2.5l0.2,2.5l0.2,5.3
				C112.6,129.6,112.9,133,112.9,136.6z"/>
		</g>
		<path class="st2" d="M335,97.9c-4.6-5.7-11.1-9.5-18.5-10.1c-7.4-0.8-14.5,1.3-20.2,5.9s-9.5,11.1-10.1,18.5l-1.5,14.3
			c-24.4-2.1-51.2-4-65.3-4c-13.9,0-40.7,1.9-65.1,4l-1.5-14.3c-0.8-7.4-4.4-13.9-10.1-18.5c-5.7-4.6-13-6.7-20.2-5.9
			c-7.3,0.8-13.9,4.4-18.5,10.1c-4.6,5.7-6.7,13-5.9,20.2l2.3,22.9l0,0l9.4,112.4h-6.5c-12.8,0-18.9-12.2-21.8-22.5l-7.3-26l-29,0.4
			l7.8,28.8c5.9,30.4,23.5,51,48.3,56.3l12,2.5l2.1,25.6c1.3,15.3,8.2,29.4,19.5,39.7c8.8,8,19.5,13.2,31.1,15.3
			c-0.2,9-0.2,19.3,0,26c-17.8,2.3-30.7,12-30.7,23.7c0,7.1,4.6,13.7,12.8,18.1c7.1,4,16.6,6.1,26.5,6.1c21,0,37.8-9.7,39.1-22.5
			c1.3-7.4,0.8-35.1,0.4-50.6h7.8c-0.4,15.5-0.8,43.3,0.4,50.6c1.3,12.8,18.1,22.5,39.1,22.5c9.9,0,19.3-2.1,26.5-6.1
			c8.2-4.6,12.8-10.9,12.8-18.1c0-11.8-12.8-21.4-30.7-23.7c0.4-6.7,0.2-16.6,0-25.6c12.8-1.5,24.6-6.9,34.2-15.8
			c11.3-10.3,18.3-24.6,19.5-39.7l14.7-174.7l2.7-25.6C341.8,110.9,339.7,103.8,335,97.9z M104,117.5c-0.6-5.7,1.1-11.3,4.6-16
			c3.6-4.6,8.8-7.3,14.5-8c5.7-0.6,11.3,1,16,4.6c4.6,3.6,7.3,8.8,8,14.5l2.1,20.4l0,0c0,0,56.3-4.6,70.6-4.6
			c14.9,0,44.5,2.3,70.1,4.4l1.9-20.4c0.6-5.7,3.6-10.9,8-14.5c4.6-3.6,10.3-5.2,16-4.6s10.9,3.6,14.5,8c3.6,4.6,5.2,10.3,4.6,16
			l-17,200.8c-1.3,13.9-7.4,26.7-17.6,35.9c-8.4,7.8-19.1,12.6-30.5,14.1l-5.7,0.8c0,0,0.4,24.8,0,30.9c-2.1,0.6-4,1.3-5.9,2.1
			c-3.2,1.5-6.1,3.6-8.4,6.1c2.9-1.7,6.1-2.5,9.4-2.9c1.5-0.2,3.1-0.2,4.6-0.2s2.9,0.2,4.4,0.4c0.2,0,0.2,0,0.4,0
			c15.1,1.9,26.2,9.2,26.2,18.1c0,10.3-14.9,18.5-33.4,18.5c-17.9,0-32.6-7.8-33.4-17.6c-1.3-6.3-0.6-34.4-0.2-49.8v-5.9h-19.7v5.5
			c0.4,15.5,0.8,43.5-0.2,49.8c-0.8,9.9-15.5,17.6-33.4,17.6c-18.5,0-33.4-8.2-33.4-18.5c0-8.8,11.3-16.2,26.2-18.1
			c0.2,0,0.2,0,0.4,0c1.5-0.2,2.9-0.2,4.4-0.4c1.5,0,3.1,0,4.6,0.2c3.2,0.4,6.5,1.5,9.5,2.9c-2.3-2.5-5.2-4.4-8.4-6.1
			c-1.9-0.8-3.8-1.7-5.9-2.1c-0.4-6.3,0-31.3,0-31.3l-5.2-0.6c-10.1-1.9-19.5-6.5-27.3-13.7c-10.3-9.4-16.4-22.3-17.6-35.9l-2.5-30
			l-16.4-3.4c-22.9-4.4-38.4-22.9-43.9-51.2l-6.9-25.8l17.2-0.2l7.4,25.8c4.8,17.2,14.5,26.7,27.3,26.7h12.8L104,117.5z"/>
		<g>
			<path class="st4" d="M326.6,129.2l1.3-11.1c0.8-8-4.8-15.1-12.8-16.2c-8-1-15.1,4.8-16.2,12.8l-1.3,11.8"/>
			<path class="st2" d="M326,136.6c0-3.6,0.2-6.9,0.4-10.5l0.2-5.2l0.2-2.5c0-0.8,0-1.7,0-2.5c-0.4-3.2-1.9-6.1-4-8.4
				c-2.3-2.1-5-3.6-8.2-3.8c-3.1-0.4-6.1,0.6-8.8,2.3c-2.5,1.7-4.6,4.4-5.5,7.6c-0.4,1.5-0.6,3.4-0.8,5l-0.8,5.2
				c-0.4,3.4-1,6.9-1.7,10.3c0-3.6,0.2-6.9,0.4-10.5l0.2-5.2c0.2-1.7,0.2-3.4,0.4-5.2c0.6-3.8,2.7-7.1,5.9-9.4s7.1-3.6,10.9-3.2
				c3.8,0.4,7.6,2.1,10.3,5c2.7,2.7,4.2,6.7,4,10.5c0,0.8-0.2,1.9-0.2,2.7l-0.4,2.5l-0.8,5.2C327.3,129.6,326.6,133.2,326,136.6z"/>
		</g>
		<path class="st7" d="M224.4,63.7c0,0,2.5,5,4.4,14.7c1.9,10.1,1.5,19.7,1.5,19.7s3.6,6.5,5.7,17.9c2.1,11.3,0.2,16.8,0.2,16.8
			l1.1,5.9c0,0-3.6,6.5-17.4,6.5c-14.1,0-17.4-6.5-17.4-6.5s-2.7-3.1-1.1-12.4s5.2-13,5.2-13s0.4-14.7,2.1-26.9s6.5-23.3,6.5-23.3
			C217.2,58.4,221.8,58.2,224.4,63.7z"/>
		<path class="st8" d="M203.2,139.7c0,0,17.4,1.3,21.6-8.4l12.2,6.3C236.8,137.4,226,155.5,203.2,139.7z"/>
		<path class="st8" d="M224.8,130.1c0,0,5-5,3.6-29.2c0,0,9.2,10.5,7.8,30.2L224.8,130.1z"/>
		<path class="st8" d="M221.4,95c0,0,4.2-19.5,0-32.1c0,0,6.1,5.2,7.1,14.5s0,21,0,21L221.4,95z"/>
		<g>
			<path class="st2" d="M239.1,133.2c0.4-1.9,1.3-7.8-0.4-17.4c-1.7-9.7-4.6-16-5.7-18.1c0-2.5,0-10.9-1.5-19.5
				c-1.9-9.7-4.2-14.9-4.6-15.5c-1.7-3.6-4.4-5.7-7.6-5.7c-2.9,0-5.7,2.3-7.1,5.7c-0.2,0.4-4.8,11.5-6.7,23.9
				c-1.5,10.5-1.9,22.7-2.1,26.2c-1.3,1.7-3.8,5.9-5.2,13.4c-1.7,9.2,0.6,13.2,1.5,14.5c1.1,1.5,5.7,7.8,20,7.8
				c15.3,0,19.5-7.1,20.2-8l0.4-0.8L239.1,133.2z M219.7,142.7c-11.8,0-14.9-4.8-14.9-5l-0.4-0.4c-0.2-0.4-1.7-3.2-0.4-9.9
				c1.1-5.2,2.5-8.4,3.6-10.1c2.7-1.3,5.5-2.7,7.8-4.6c2.3-1.9,4.4-4,6.1-6.3c-3.8,2.5-7.8,3.6-12,4c0.2-5,0.6-14.7,1.9-22.9
				c1.7-11.6,6.3-22.5,6.3-22.5c0.6-1.5,1.5-2.1,1.9-2.1c0.4,0,1.5,0.6,2.1,2.3v0.2c0,0,2.5,4.8,4.2,14.1c1.3,6.7,1.5,13.4,1.5,16.8
				c-3.1-0.6-6.3-1.9-9.2-3.8c2.5,3.6,6.1,6.7,10.1,9c1.1,2.3,3.4,7.8,4.6,15.8c1.1,6.5,1.1,10.9,0.8,13.2c-2.5,0-5,0-7.6-0.6
				c-3.2-0.6-6.3-1.9-9.2-3.8c1.9,2.9,4.6,5.3,7.6,7.3c2.9,1.9,6.1,3.6,9.4,4.6l0.2,0.6C232.8,139.5,228.8,142.7,219.7,142.7z"/>
		</g>
		<g>
			<g>
				<path class="st5" d="M217.4,281.5c0.6,1.1,2.1,1.1,2.7,0l3.4-5.9h-9.7L217.4,281.5z"/>
				<path class="st5" d="M229.2,280.6l3.4,5.9c0.6,1,2.1,1,2.7,0l3.4-5.9H229.2z"/>
				<path class="st5" d="M202.3,286.5c0.6,1,2.1,1,2.7,0l3.4-5.9h-9.7L202.3,286.5z"/>
			</g>
			<path class="st6" d="M243.7,276c-2.9,2.1-6.5,3.4-9.9,3.6c-3.4,0-6.7-1.3-9-3.6c-2.3-2.3-3.6-5.5-3.6-8.6v-12.2h-4.6v12.2
				c0,3.1-1.3,6.3-3.6,8.6c-2.3,2.3-5.7,3.6-9,3.6c-3.4,0-6.9-1.3-9.9-3.4c-2.9-2.1-5.5-5-6.7-8.8c0.2,4,2.3,7.6,5.2,10.5
				c2.9,2.7,6.7,4.8,11.1,5.2c4.2,0.6,8.8-0.8,12.2-3.8c1.3-1.1,2.1-2.3,2.9-3.6c0.8,1.3,1.9,2.5,2.9,3.6c3.4,2.9,8,4.4,12.2,4
				c4.2-0.4,8.2-2.5,10.9-5.2c2.9-2.9,4.8-6.5,5.5-10.5C248.9,270.8,246.6,273.9,243.7,276z"/>
			<circle class="st4" cx="218.9" cy="243.5" r="12.8"/>
			<circle class="st9" cx="218.9" cy="238.8" r="4"/>
		</g>
		<g>
			<g>
				<path class="st1" d="M71.3,188.6l3.4-27.3c0.4-4-2.3-7.6-6.3-8c-4-0.4-7.6,2.3-8,6.3L57,185.5l-10.1-20.6
					c-1.7-3.6-6.1-5-9.7-3.4c-3.6,1.7-5,6.1-3.4,9.7l9.9,20.4c-3.6,2.7-5.7,6.1-5.5,9.7c0.4,7.1,42,4.2,41.6-2.9
					C79.7,194.1,76.3,190.5,71.3,188.6z"/>
				<path class="st4" d="M40.2,164.9l17.9,25l-10.9-25c-1.7-3.6-6.1-5-9.7-3.4c-0.2,0-0.2,0.2-0.4,0.2
					C38.3,162.4,39.4,163.4,40.2,164.9z"/>
				<path class="st4" d="M71.3,188.6l3.4-27.3c0.4-4-2.3-7.6-6.3-8c-1.5-0.2-3.2,0.2-4.4,0.8c2.5,1.5,4,4.2,3.8,7.1l0.4,29.2
					C73.2,192.4,76.3,190.5,71.3,188.6z"/>
			</g>
			<path class="st2" d="M54.3,215.5c-4.8-0.4-5.9,0.8-7.6-4.8c-1.9-6.5-6.3-20-6.3-20l-9-18.3c-2.5-5-0.4-11.1,4.6-13.4
				c5-2.5,11.1-0.4,13.4,4.6l5.7,11.8l2.1-16.4c0.4-2.7,1.7-5,3.8-6.7c2.1-1.7,4.8-2.3,7.6-2.1c2.7,0.4,5,1.7,6.7,3.8
				c1.7,2.1,2.3,4.8,2.1,7.6l-3.2,25.2c5,2.5-1.1,12.4,0,18.1c0.2,0.6-7.1-2.7-7.1-2.7c1.5-0.6,2.1-1.1,3.2-1.9
				c1.7-1.3,3.8-7.4-0.4-9l-2.1-0.8l4-29.4c0.2-1-0.2-2.3-0.8-3.1c-0.6-0.8-1.7-1.5-2.9-1.7c-1-0.2-2.3,0.2-3.2,0.8
				c-0.8,0.6-1.5,1.7-1.7,2.9l-5.2,30l-13.4-23.7c-0.8-1.5-2.3-2.5-4-2.5c-0.6,0-1.3,0.2-1.9,0.4c-2.1,1.1-3.2,3.6-2.1,5.9
				l10.9,22.5l-1.9,1.5c-1.7,1.3,0.8,14.5,7.3,15.5L54.3,215.5z"/>
		</g>
		<g>
			<path class="st1" d="M70.2,189.1l-16.2,12.2c-2.5,1.9-2.7,5.9-0.4,8.8c2.3,2.9,6.1,3.8,8.6,1.9l16.2-12.2
				c2.5-1.9,2.7-5.9,0.4-8.8C76.7,188,72.7,187.2,70.2,189.1z"/>
			<path class="st4" d="M78.8,191.2c-2.3-2.9-6.1-3.8-8.6-1.9l-1.9,1.5c1.7,0.2,3.4,1.3,4.6,2.9c2.3,2.9,2.1,6.9-0.4,8.8l-14.3,10.9
				c1.5,0.2,2.7,0,4-0.8l16.2-12.2C80.9,197.9,81.1,194.1,78.8,191.2z"/>
			<g>
				<path class="st2" d="M79.9,201.7l-16.2,12.2c-3.6,2.7-8.8,1.7-12-2.3c-2.9-4-2.5-9.4,0.8-12.2l16.2-12.2c3.6-2.7,8.8-1.7,12,2.3
					C83.9,193.7,83.5,199.1,79.9,201.7z M55.5,203.3c-1.5,1.1-1.5,3.6,0,5.5c1.5,1.9,3.8,2.5,5.2,1.5l16.2-12.2
					c1.5-1.1,1.5-3.6,0-5.5c-1.5-1.9-3.8-2.5-5.2-1.5L55.5,203.3z"/>
			</g>
		</g>
		<g>
			<path class="st1" d="M63.9,200.2L45,192.6c-2.9-1.3-6.3,0.6-7.8,4.2c-1.5,3.4-0.2,7.1,2.7,8.4l18.9,7.6c2.9,1.3,6.3-0.6,7.8-4.2
				S66.9,201.2,63.9,200.2z"/>
			<g>
				<path class="st2" d="M58,214.9l-18.9-7.6c-4.2-1.7-5.9-6.7-4.2-11.3c1.9-4.6,6.7-7.1,10.9-5.5l18.9,7.6
					c4.2,1.7,5.9,6.7,4.2,11.3C67.1,214.1,62.2,216.4,58,214.9z M44.2,194.7c-1.7-0.6-3.8,0.6-4.6,2.9c-0.8,2.3-0.2,4.6,1.5,5.2
					l18.9,7.6c1.7,0.6,3.8-0.6,4.6-2.9s0.2-4.6-1.5-5.2L44.2,194.7z"/>
			</g>
		</g>
		<g>
			<path class="st10" d="M404.5,344.3l-90.1,23.9c-5.7,1.5-10.9-2.1-11.8-8l-8.2-63.6c-0.8-6.9,3.6-13.4,10.1-14.5l99.3-15.3
				c4.8-0.8,8.6,3.6,8.6,9.7v55.9C412.5,337.7,409,343,404.5,344.3z"/>
			<path class="st11" d="M403.9,267l-17.9,2.7c1.3,5.7,1.9,11.6,1.9,17.6c0,35.1-22.3,64.9-53.3,75.6l69.9-18.7
				c4.4-1.3,8-6.3,8-11.8v-55.9C412.5,270.5,408.5,266.1,403.9,267z"/>
			<path class="st12" d="M311.9,360.2l-8.2-63.6c-0.8-6.9,3.6-13.4,10.1-14.5l94.3-14.5c-1.3-0.6-2.7-1.1-4.2-0.8l-99.3,15.3
				c-6.3,1-10.9,7.6-10.1,14.5l8.2,63.6c0.8,5.9,6.1,9.4,11.8,8l2.5-0.6C314.2,366.3,312.4,363.6,311.9,360.2z"/>
			<g>
				<path class="st2" d="M311.9,371.6c-2.3,0-4.6-0.6-6.7-2.1c-2.9-1.9-4.8-5-5.2-8.8l-8.2-63.6c-1.1-8.6,4.4-16.6,12.4-17.6
					l99.3-15.3c2.7-0.4,5.5,0.4,7.8,2.3c2.7,2.3,4.2,6.1,4.2,10.3v55.9c0,6.5-4.4,13-10.1,14.5l-90.1,23.9
					C314,371.3,313,371.6,311.9,371.6z M405,269.7c-0.2,0-0.4,0-0.6,0L305,285c-4.8,0.8-8.2,5.9-7.6,11.3l8.2,63.6
					c0.2,2.1,1.3,3.8,2.7,4.8c1.5,1.1,3.4,1.3,5.5,0.8l90.1-23.9c3.1-0.8,5.9-4.8,5.9-8.8v-55.9c0-2.5-0.8-4.6-2.3-5.9
					C406.6,269.9,405.8,269.7,405,269.7z"/>
			</g>
		</g>
		<g>
			<polygon class="st2" points="190.3,369 208.2,368.8 208.2,374.3 			"/>
			<polygon class="st2" points="245.8,369 227.9,368.8 227.9,374.3 			"/>
		</g>
		<g>
			<path class="st1" d="M403.1,346.6l-5.7-23.1c-0.8-3.6-5-5.7-9.2-4.6c-4.2,1-6.9,4.8-6.1,8.4l5.7,23.1c0.8,3.6,5,5.7,9.2,4.6
				C401.4,353.9,404.1,350.1,403.1,346.6z"/>
			<path class="st1" d="M387.7,350.3l-5.7-23.1c-0.8-3.6-5-5.7-9.2-4.6c-4.2,1-6.9,4.8-6.1,8.4l5.7,23.1c0.8,3.6,5,5.7,9.2,4.6
				C386.1,357.7,388.8,353.9,387.7,350.3z"/>
			<path class="st1" d="M372.4,354.1l-5.7-23.1c-0.8-3.6-5-5.7-9.2-4.6c-4.2,1-6.9,4.8-6.1,8.4l5.7,23.1c0.8,3.6,5,5.7,9.2,4.6
				C370.5,361.5,373.3,357.7,372.4,354.1z"/>
			<path class="st3" d="M395.3,348c4.2-1,6.9-4.8,6.1-8.4l1,4.2c0.8,3.6-1.9,7.4-6.1,8.4c-4.2,1-8.4-1.1-9.2-4.6l-1-4.2
				C386.9,347,391.1,349.1,395.3,348z"/>
			<g>
				<path class="st2" d="M385.2,351l-5.7-23.1c-1.3-5,2.3-10.3,8.2-11.8c5.7-1.5,11.3,1.5,12.6,6.5l5.7,23.1
					c1.3,5-2.3,10.3-8.2,11.8C391.9,359,386.5,356,385.2,351z M394.7,324.1c-0.4-2.1-3.1-3.2-5.9-2.5s-4.6,2.9-4,5l5.7,23.1
					c0.4,2.1,3.2,3.2,5.9,2.5c2.7-0.6,4.6-2.9,4-5L394.7,324.1z"/>
			</g>
			<path class="st3" d="M380,351.8c4.2-1,6.9-4.8,6.1-8.4l1,4.2c0.8,3.6-1.9,7.3-6.1,8.4c-4.2,1-8.4-1.1-9.2-4.6l-1.1-4.2
				C371.6,350.8,375.8,352.9,380,351.8z"/>
			<g>
				<path class="st2" d="M369.7,354.8l-5.7-23.1c-1.3-5,2.3-10.3,8.2-11.8c5.7-1.5,11.3,1.5,12.6,6.5l5.7,23.1
					c1.3,5-2.3,10.3-8.2,11.8C376.6,362.7,370.9,359.8,369.7,354.8z M379.3,327.9c-0.4-2.1-3.1-3.1-5.9-2.5s-4.6,2.9-4,5l5.7,23.1
					c0.4,2.1,3.1,3.1,5.9,2.5s4.6-2.9,4-5L379.3,327.9z"/>
			</g>
			<path class="st3" d="M364.6,355.6c4.2-1.1,6.9-4.8,6.1-8.4l1.1,4.2c0.8,3.6-1.9,7.4-6.1,8.4c-4.2,1.1-8.4-1-9.2-4.6l-1-4.2
				C356.2,354.5,360.4,356.6,364.6,355.6z"/>
			<g>
				<path class="st2" d="M354.4,358.7l-5.7-23.1c-1.3-5,2.3-10.3,8.2-11.8c5.7-1.5,11.3,1.5,12.6,6.5l5.7,23.1
					c1.3,5-2.3,10.3-8.2,11.8C361.3,366.7,355.6,363.8,354.4,358.7z M364,331.7c-0.4-2.1-3.2-3.1-5.9-2.5c-2.7,0.6-4.6,2.9-4,5
					l5.7,23.1c0.4,2.1,3.1,3.1,5.9,2.5s4.6-2.9,4-5L364,331.7z"/>
			</g>
		</g>
		<circle class="st2" cx="317" cy="297.6" r="3.4"/>
	</g>
	<g>
		<polygon class="st8" points="221.2,10.8 243.1,40.4 245.6,77.6 223.3,47.5 		"/>
		<polygon class="st7" points="233.2,44.2 221,10.8 223.5,47.7 		"/>
		<polygon class="st7" points="233.4,44.2 245.6,77.6 243.1,40.6 		"/>
		<polygon class="st8" points="213.4,51.5 229.6,34.5 253.3,37 236.8,54 		"/>
	</g>
</g>
</svg>
